<svg width="51" height="51" viewBox="0 0 51 51" fill="none" xmlns="http://www.w3.org/2000/svg">
<path d="M10.2797 6.69371C9.80157 6.61402 9.08438 5.25933 7.17188 3.42652C4.94063 1.11558 3.34688 1.27496 2.31094 2.31089C1.275 3.34683 1.11563 4.94058 3.42657 7.17183C5.33907 9.08433 6.61407 9.72183 6.69375 10.2796C7.09219 13.2281 5.17969 15.9375 6.375 17.0531L17.0531 6.37496C15.9375 5.17964 13.2281 7.09214 10.2797 6.69371Z" fill="#FFE62E"/>
<path d="M48.6094 31.5562C49.725 32.6719 49.725 34.3453 48.6094 35.4609L35.4609 48.6094C34.3453 49.725 32.6719 49.725 31.5562 48.6094L10.2 27.2531C9.08437 26.1375 9.08437 24.4641 10.2 23.3484L23.3484 10.2C24.4641 9.08437 26.1375 9.08437 27.2531 10.2L48.6094 31.5562Z" fill="#B4D7EE"/>
<path d="M45.0234 31.9545C45.8203 32.7514 45.8203 34.1061 45.0234 34.9029L34.9828 45.0232C34.1859 45.8201 32.8312 45.8201 32.0344 45.0232L17.3719 30.4404H43.5094L45.0234 31.9545Z" fill="white"/>
<path d="M13.1038 26.1528L18.1751 21.0815L19.5274 22.4338L14.4561 27.5051L13.1038 26.1528ZM16.6889 29.7387L21.7603 24.6674L23.1126 26.0197L18.0412 31.091L16.6889 29.7387ZM20.2757 33.3254L25.3462 28.2525L26.6985 29.6048L21.628 34.6769L20.2757 33.3254ZM23.8616 36.9098L28.9337 31.8393L30.286 33.1916L25.2139 38.2621L23.8616 36.9098ZM27.4515 40.4997L32.5229 35.4284L33.8752 36.7807L28.8038 41.852L27.4515 40.4997ZM31.0383 44.0856L36.1096 39.0143L37.4619 40.3666L32.3898 45.4379L31.0383 44.0856ZM5.33906 20.2407C4.14375 19.0454 5.02031 17.9298 6.21562 16.7345L16.6547 6.21575C17.85 5.02044 18.9656 4.14388 20.1609 5.33919L22.8703 8.04856C24.0656 9.24388 23.1891 10.3595 21.9937 11.5548L11.5547 21.9939C10.3594 23.1892 9.24375 24.0658 8.04843 22.8704L5.33906 20.2407Z" fill="#2090BC"/>
<path d="M5.3805 18.6881L6.00047 18.0681L10.1729 22.2358L9.55294 22.8558L5.3805 18.6881ZM18.2867 5.77475L18.9067 5.15479L23.0759 9.32404L22.4559 9.944L18.2867 5.77475ZM16.1367 7.92632L16.7559 7.30714L20.9259 11.4764L20.306 12.0964L16.1367 7.92632ZM13.9875 10.0771L14.6075 9.45711L18.7752 13.6296L18.1544 14.2495L13.9875 10.0771ZM11.8336 12.2294L12.4536 11.6095L16.6236 15.7795L16.0036 16.3995L11.8336 12.2294ZM9.68522 14.3818L10.306 13.7618L14.4736 17.9343L13.8529 18.5542L9.68522 14.3818ZM7.53127 16.5326L8.15124 15.9126L12.3205 20.0826L11.7013 20.7026L7.53127 16.5326Z" fill="#095972"/>
</svg>
