<svg width="20" height="20" viewBox="0 0 20 20" fill="none" xmlns="http://www.w3.org/2000/svg">
<path d="M4.0506 0L4.1245 0.952568L3.39854 1.57324L4.32881 1.79842L4.69397 2.68043L5.19388 1.86681L6.14154 1.79058L5.52426 1.06276L5.74596 0.134152L4.8635 0.497844L4.0506 0ZM18.8871 0.378065C18.7027 0.378065 18.5258 0.451488 18.3953 0.582181C18.2649 0.712874 18.1916 0.890132 18.1916 1.07496C18.1916 1.25979 18.2649 1.43705 18.3953 1.56774C18.5258 1.69843 18.7027 1.77185 18.8871 1.77185C19.0716 1.77185 19.2485 1.69843 19.379 1.56774C19.5094 1.43705 19.5827 1.25979 19.5827 1.07496C19.5827 0.890132 19.5094 0.712874 19.379 0.582181C19.2485 0.451488 19.0716 0.378065 18.8871 0.378065ZM9.14102 0.835402C8.95655 0.835402 8.77964 0.908825 8.6492 1.03952C8.51877 1.17021 8.44549 1.34747 8.44549 1.5323C8.44549 1.71712 8.51877 1.89438 8.6492 2.02508C8.77964 2.15577 8.95655 2.22919 9.14102 2.22919C9.32549 2.22919 9.5024 2.15577 9.63283 2.02508C9.76327 1.89438 9.83655 1.71712 9.83655 1.5323C9.83655 1.34747 9.76327 1.17021 9.63283 1.03952C9.5024 0.908825 9.32549 0.835402 9.14102 0.835402ZM17.1353 1.13332C16.7354 1.20911 16.3658 1.44606 16.0094 1.7553C15.679 2.03972 15.3704 2.39383 15.1095 2.77669C14.2923 2.90779 13.475 3.24143 12.9273 3.69703C12.2274 4.27196 11.6058 5.25633 11.2667 6.27118C10.9451 6.4062 10.6408 6.56736 10.393 6.74158C9.71918 7.21634 9.37141 8.12666 9.11494 8.91938C8.85846 9.71645 8.73239 10.4133 8.73239 10.4133L9.50617 10.5527C9.50617 10.5527 9.62354 9.89939 9.85828 9.16329C10.0974 8.4272 10.5017 7.62577 10.8451 7.38621C10.9016 7.34701 10.9755 7.30345 11.0407 7.26425C11.0146 7.51252 11.0146 7.76079 11.0537 7.99599C11.132 8.49253 11.4015 8.96729 11.8797 9.22427C12.2187 9.4072 12.6013 9.36365 12.923 9.23298C13.2447 9.09796 13.5316 8.87582 13.7793 8.61449C14.0271 8.35315 14.2314 8.0439 14.3532 7.71723C14.4749 7.39057 14.5183 7.02034 14.3618 6.67625H14.3575C14.188 6.31038 13.8619 6.07518 13.5142 5.975C13.1664 5.87482 12.7926 5.87918 12.4187 5.9358C12.3535 5.94451 12.2926 5.96629 12.2274 5.97935C12.5491 5.29117 13.0099 4.64219 13.4229 4.2981C13.6924 4.07596 14.1445 3.86254 14.627 3.70574C14.5662 3.87125 14.5183 4.03676 14.4966 4.20663C14.4271 4.66397 14.527 5.1605 14.8922 5.50024C15.1574 5.74415 15.5138 5.78335 15.8268 5.73109C16.1355 5.67882 16.4354 5.53944 16.7049 5.36086C16.9744 5.17793 17.2135 4.95144 17.3831 4.68574C17.5526 4.42005 17.6656 4.08032 17.5569 3.74058V3.73623C17.4135 3.29762 17.057 2.99621 16.6614 2.85335C16.4919 2.79237 16.3137 2.75796 16.1311 2.73749C16.2572 2.5955 16.3876 2.46265 16.518 2.34897C16.8136 2.0946 17.1135 1.93519 17.2831 1.90339L17.1353 1.13332ZM6.31542 2.65996L5.65467 3.07635L7.15441 5.48282L4.70266 5.60913L5.85463 8.12666L6.56755 7.79564L5.89376 6.33216L8.52808 6.19713L6.31542 2.65996ZM15.7225 3.50102C15.9877 3.49667 16.2224 3.52716 16.3963 3.59249C16.631 3.67525 16.7484 3.77978 16.8093 3.97578C16.8266 4.02369 16.8179 4.11952 16.7267 4.26325C16.631 4.41134 16.4615 4.57685 16.2702 4.70752C16.0746 4.83819 15.8572 4.92966 15.6964 4.95579C15.5312 4.98628 15.4573 4.95579 15.4225 4.9253C15.2704 4.78592 15.2269 4.6117 15.2704 4.31987C15.3052 4.08467 15.4138 3.80156 15.5747 3.50973C15.6268 3.50973 15.6747 3.50102 15.7225 3.50102ZM2.84603 4.34165C2.66156 4.34165 2.48465 4.41508 2.35421 4.54577C2.22377 4.67646 2.1505 4.85372 2.1505 5.03855C2.1505 5.22337 2.22377 5.40063 2.35421 5.53133C2.48465 5.66202 2.66156 5.73544 2.84603 5.73544C2.9374 5.7355 3.02789 5.71751 3.11233 5.68252C3.19676 5.64752 3.27349 5.5962 3.33812 5.53148C3.40275 5.46676 3.45403 5.38992 3.48901 5.30534C3.52399 5.22076 3.54199 5.1301 3.54199 5.03855C3.54199 4.94699 3.52399 4.85634 3.48901 4.77176C3.45403 4.68718 3.40275 4.61033 3.33812 4.54561C3.27349 4.4809 3.19676 4.42957 3.11233 4.39458C3.02789 4.35958 2.9374 4.3416 2.84603 4.34165ZM18.3264 5.96193L17.7004 6.68496L16.7527 6.60656L17.2483 7.42541L16.8788 8.30524L17.8091 8.08746L18.5307 8.71031L18.6133 7.75643L19.4262 7.2599L18.5481 6.88967L18.3264 5.96193ZM12.9577 6.6806C13.0838 6.68496 13.2012 6.70238 13.2925 6.72852C13.4794 6.78078 13.5794 6.85918 13.6489 7.00727C13.6881 7.09003 13.6924 7.24248 13.6185 7.44283C13.5446 7.64755 13.3925 7.88275 13.2099 8.07875C13.0273 8.27475 12.8056 8.43155 12.623 8.5056C12.4404 8.57964 12.3274 8.57529 12.2535 8.53609H12.2492C11.997 8.39671 11.8753 8.19635 11.8275 7.87404C11.784 7.59963 11.8145 7.25119 11.9058 6.87661C12.1188 6.80256 12.3318 6.74158 12.5361 6.71109C12.6882 6.68932 12.8273 6.6806 12.9577 6.6806ZM4.15928 8.94116C3.84629 8.93244 3.65067 9.00649 3.52895 9.12845C3.40723 9.2504 3.33333 9.4464 3.34203 9.76001C3.35072 10.078 3.45505 10.4961 3.65502 10.9621C4.05495 11.8986 4.84177 13.0267 5.8981 14.0895C6.95444 15.1479 8.08468 15.9319 9.0193 16.3326C9.48009 16.5329 9.89741 16.6375 10.2147 16.6462C10.5321 16.6593 10.7234 16.5809 10.8451 16.4589C10.9668 16.3369 11.045 16.1453 11.032 15.8273C11.0233 15.5094 10.919 15.0912 10.719 14.6252C10.3191 13.6931 9.5366 12.5607 8.48026 11.5022C7.42393 10.4395 6.29369 9.65547 5.35907 9.25476C4.89393 9.0544 4.47661 8.94987 4.15928 8.94116ZM14.2445 10.3045L12.8099 12.6565L11.5449 11.4413L11.0059 12.0075L12.9664 13.8935L14.4358 11.4892L16.1181 12.896L20 11.2322L19.6957 10.5092L16.2485 11.9901L14.2445 10.3045ZM2.77821 10.8576L2.01139 13.3795C3.81151 15.5181 5.91115 16.7202 8.18901 17.5042L9.12798 17.2168C8.99322 17.1689 8.84976 17.1122 8.70631 17.0513C7.64563 16.5983 6.45888 15.762 5.34603 14.6426C4.22883 13.5232 3.39419 12.3342 2.94036 11.2714C2.87906 11.132 2.82516 10.9926 2.77821 10.8576ZM1.74274 14.2637L1.13372 16.2673C2.38958 17.4433 3.69849 17.9746 5.07216 18.4538L6.95879 17.8788C5.08086 17.1122 3.30725 15.9929 1.74274 14.2637ZM14.714 14.316C14.5295 14.316 14.3526 14.3894 14.2221 14.5201C14.0917 14.6508 14.0184 14.828 14.0184 15.0128C14.0184 15.1977 14.0917 15.3749 14.2221 15.5056C14.3526 15.6363 14.5295 15.7097 14.714 15.7097C14.8984 15.7097 15.0753 15.6363 15.2058 15.5056C15.3362 15.3749 15.4095 15.1977 15.4095 15.0128C15.4095 14.828 15.3362 14.6508 15.2058 14.5201C15.0753 14.3894 14.8984 14.316 14.714 14.316ZM0.882021 17.0992L0 20L3.83759 18.8283C2.84777 18.432 1.8475 17.9267 0.882021 17.0992Z" fill="black" fill-opacity="0.5"/>
</svg>
