<svg width="15" height="21" viewBox="0 0 18 21" fill="none" xmlns="http://www.w3.org/2000/svg">
<path d="M17.3721 0H3.13953C2.30688 0 1.50833 0.325367 0.919548 0.904523C0.330771 1.48368 0 2.26918 0 3.08824V20.3824C0 20.5462 0.0661542 20.7033 0.18391 20.8191C0.301665 20.9349 0.461376 21 0.627907 21H15.6977C15.8642 21 16.0239 20.9349 16.1417 20.8191C16.2594 20.7033 16.3256 20.5462 16.3256 20.3824C16.3256 20.2185 16.2594 20.0614 16.1417 19.9456C16.0239 19.8298 15.8642 19.7647 15.6977 19.7647H1.25581V19.5588C1.25581 19.0674 1.45428 18.5961 1.80754 18.2486C2.16081 17.9011 2.63994 17.7059 3.13953 17.7059H17.3721C17.5386 17.7059 17.6983 17.6408 17.8161 17.525C17.9338 17.4091 18 17.252 18 17.0882V0.617647C18 0.453837 17.9338 0.296736 17.8161 0.180905C17.6983 0.0650733 17.5386 0 17.3721 0ZM16.7442 16.4706H3.13953C2.46007 16.4696 1.79879 16.6864 1.25581 17.0882V3.08824C1.25581 2.5968 1.45428 2.1255 1.80754 1.77801C2.16081 1.43051 2.63994 1.23529 3.13953 1.23529H16.7442V16.4706Z" fill="#00AAA8"/>
</svg>
