<svg width="44" height="30" viewBox="0 0 44 30" fill="none" xmlns="http://www.w3.org/2000/svg">
<path d="M1.375 27.2727H42.625C42.9897 27.2727 43.3394 27.4164 43.5973 27.6721C43.8551 27.9279 44 28.2747 44 28.6364C44 28.998 43.8551 29.3449 43.5973 29.6006C43.3394 29.8563 42.9897 30 42.625 30H1.375C1.01033 30 0.660591 29.8563 0.402728 29.6006C0.144866 29.3449 0 28.998 0 28.6364C0 28.2747 0.144866 27.9279 0.402728 27.6721C0.660591 27.4164 1.01033 27.2727 1.375 27.2727ZM6.9355 23.1818C7.27303 19.4506 9.00617 15.9796 11.794 13.4518C14.5818 10.9239 18.2226 9.52212 22 9.52212C25.7774 9.52212 29.4182 10.9239 32.206 13.4518C34.9938 15.9796 36.727 19.4506 37.0645 23.1818H34.3008C33.9674 20.1775 32.5279 17.4007 30.258 15.3838C27.9882 13.3668 25.0477 12.2515 22 12.2515C18.9523 12.2515 16.0118 13.3668 13.742 15.3838C11.4721 17.4007 10.0326 20.1775 9.69925 23.1818H6.9355ZM22 0C22.3647 0 22.7144 0.143669 22.9723 0.3994C23.2301 0.655132 23.375 1.00198 23.375 1.36364V5.45455C23.375 5.8162 23.2301 6.16305 22.9723 6.41878C22.7144 6.67451 22.3647 6.81818 22 6.81818C21.6353 6.81818 21.2856 6.67451 21.0277 6.41878C20.7699 6.16305 20.625 5.8162 20.625 5.45455V1.36364C20.625 1.00198 20.7699 0.655132 21.0277 0.3994C21.2856 0.143669 21.6353 0 22 0ZM39.501 7.18909C39.7588 7.44481 39.9036 7.79159 39.9036 8.15318C39.9036 8.51477 39.7588 8.86155 39.501 9.11727L36.586 12.0082C36.4592 12.1384 36.3074 12.2423 36.1397 12.3138C35.9719 12.3852 35.7915 12.4229 35.6089 12.4244C35.4264 12.426 35.2453 12.3915 35.0763 12.3229C34.9073 12.2544 34.7538 12.1531 34.6247 12.0251C34.4956 11.897 34.3935 11.7448 34.3244 11.5772C34.2552 11.4096 34.2204 11.2301 34.222 11.049C34.2236 10.8679 34.2615 10.689 34.3336 10.5226C34.4057 10.3563 34.5104 10.2058 34.6418 10.08L37.5567 7.18909C37.8146 6.93345 38.1643 6.78984 38.5289 6.78984C38.8935 6.78984 39.2431 6.93345 39.501 7.18909ZM4.499 7.18909C4.75685 6.93345 5.10652 6.78984 5.47113 6.78984C5.83573 6.78984 6.1854 6.93345 6.44325 7.18909L9.35825 10.08C9.48958 10.2058 9.59433 10.3563 9.66639 10.5226C9.73845 10.689 9.77638 10.8679 9.77797 11.049C9.77956 11.2301 9.74477 11.4096 9.67563 11.5772C9.60649 11.7448 9.5044 11.897 9.37529 12.0251C9.24619 12.1531 9.09267 12.2544 8.92369 12.3229C8.7547 12.3915 8.57364 12.426 8.39107 12.4244C8.2085 12.4229 8.02807 12.3852 7.86032 12.3138C7.69256 12.2423 7.54084 12.1384 7.414 12.0082L4.499 9.11727C4.24123 8.86155 4.09642 8.51477 4.09642 8.15318C4.09642 7.79159 4.24123 7.44481 4.499 7.18909Z" fill="black"/>
</svg>
