<svg width="21" height="21" viewBox="0 0 21 21" fill="none" xmlns="http://www.w3.org/2000/svg">
<g clip-path="url(#clip0_376_34)">
<path d="M18.8125 3.5H16.9167V4.66667H18.6667V17.5H2.33332V4.66667H4.08332V3.5H2.18749C2.05113 3.50228 1.91655 3.5314 1.79144 3.5857C1.66634 3.63999 1.55315 3.71841 1.45836 3.81645C1.36356 3.9145 1.28901 4.03026 1.23896 4.15713C1.1889 4.28399 1.16434 4.41947 1.16665 4.55583V17.6108C1.16434 17.7472 1.1889 17.8827 1.23896 18.0095C1.28901 18.1364 1.36356 18.2522 1.45836 18.3502C1.55315 18.4483 1.66634 18.5267 1.79144 18.581C1.91655 18.6353 2.05113 18.6644 2.18749 18.6667H18.8125C18.9488 18.6644 19.0834 18.6353 19.2085 18.581C19.3336 18.5267 19.4468 18.4483 19.5416 18.3502C19.6364 18.2522 19.711 18.1364 19.761 18.0095C19.8111 17.8827 19.8356 17.7472 19.8333 17.6108V4.55583C19.8356 4.41947 19.8111 4.28399 19.761 4.15713C19.711 4.03026 19.6364 3.9145 19.5416 3.81645C19.4468 3.71841 19.3336 3.63999 19.2085 3.5857C19.0834 3.5314 18.9488 3.50228 18.8125 3.5Z" fill="#00AAA8"/>
<path d="M4.66663 8.16669H5.83329V9.33335H4.66663V8.16669Z" fill="#00AAA8"/>
<path d="M8.16663 8.16669H9.33329V9.33335H8.16663V8.16669Z" fill="#00AAA8"/>
<path d="M11.6666 8.16669H12.8333V9.33335H11.6666V8.16669Z" fill="#00AAA8"/>
<path d="M15.1666 8.16669H16.3333V9.33335H15.1666V8.16669Z" fill="#00AAA8"/>
<path d="M4.66663 11.0833H5.83329V12.25H4.66663V11.0833Z" fill="#00AAA8"/>
<path d="M8.16663 11.0833H9.33329V12.25H8.16663V11.0833Z" fill="#00AAA8"/>
<path d="M11.6666 11.0833H12.8333V12.25H11.6666V11.0833Z" fill="#00AAA8"/>
<path d="M15.1666 11.0833H16.3333V12.25H15.1666V11.0833Z" fill="#00AAA8"/>
<path d="M4.66663 14H5.83329V15.1667H4.66663V14Z" fill="#00AAA8"/>
<path d="M8.16663 14H9.33329V15.1667H8.16663V14Z" fill="#00AAA8"/>
<path d="M11.6666 14H12.8333V15.1667H11.6666V14Z" fill="#00AAA8"/>
<path d="M15.1666 14H16.3333V15.1667H15.1666V14Z" fill="#00AAA8"/>
<path d="M5.83333 5.83335C5.98804 5.83335 6.13642 5.7719 6.24581 5.6625C6.35521 5.5531 6.41667 5.40473 6.41667 5.25002V1.75002C6.41667 1.59531 6.35521 1.44694 6.24581 1.33754C6.13642 1.22815 5.98804 1.16669 5.83333 1.16669C5.67862 1.16669 5.53025 1.22815 5.42085 1.33754C5.31146 1.44694 5.25 1.59531 5.25 1.75002V5.25002C5.25 5.40473 5.31146 5.5531 5.42085 5.6625C5.53025 5.7719 5.67862 5.83335 5.83333 5.83335Z" fill="#00AAA8"/>
<path d="M15.1667 5.83335C15.3214 5.83335 15.4698 5.7719 15.5792 5.6625C15.6886 5.5531 15.75 5.40473 15.75 5.25002V1.75002C15.75 1.59531 15.6886 1.44694 15.5792 1.33754C15.4698 1.22815 15.3214 1.16669 15.1667 1.16669C15.012 1.16669 14.8636 1.22815 14.7542 1.33754C14.6448 1.44694 14.5834 1.59531 14.5834 1.75002V5.25002C14.5834 5.40473 14.6448 5.5531 14.7542 5.6625C14.8636 5.7719 15.012 5.83335 15.1667 5.83335Z" fill="#00AAA8"/>
<path d="M7.58337 3.5H13.4167V4.66667H7.58337V3.5Z" fill="#00AAA8"/>
</g>
<defs>
<clipPath id="clip0_376_34">
<rect width="21" height="21" fill="white"/>
</clipPath>
</defs>
</svg>
