<svg width="22" height="19" viewBox="0 0 22 19" fill="none" xmlns="http://www.w3.org/2000/svg">
<path d="M19.8 2.59091H16.5143L14.8852 0.192159C14.8451 0.133157 14.7908 0.0847611 14.7271 0.0512465C14.6634 0.017732 14.5923 0.000131322 14.52 0H7.48C7.40773 0.000131322 7.3366 0.017732 7.27291 0.0512465C7.20921 0.0847611 7.15491 0.133157 7.1148 0.192159L5.4835 2.59091H2.2C1.61652 2.59091 1.05695 2.81838 0.644365 3.22329C0.231785 3.6282 0 4.17737 0 4.75V16.8409C0 17.4135 0.231785 17.9627 0.644365 18.3676C1.05695 18.7725 1.61652 19 2.2 19H19.8C20.3835 19 20.9431 18.7725 21.3556 18.3676C21.7682 17.9627 22 17.4135 22 16.8409V4.75C22 4.17737 21.7682 3.6282 21.3556 3.22329C20.9431 2.81838 20.3835 2.59091 19.8 2.59091ZM21.12 16.8409C21.12 17.1845 20.9809 17.514 20.7334 17.7569C20.4858 17.9999 20.1501 18.1364 19.8 18.1364H2.2C1.84991 18.1364 1.51417 17.9999 1.26662 17.7569C1.01907 17.514 0.88 17.1845 0.88 16.8409V4.75C0.88 4.40642 1.01907 4.07692 1.26662 3.83398C1.51417 3.59103 1.84991 3.45455 2.2 3.45455H5.72C5.79246 3.45459 5.86381 3.43708 5.92771 3.40355C5.99161 3.37003 6.04609 3.32154 6.0863 3.26239L7.7143 0.863636H14.2835L15.9137 3.26239C15.9539 3.32154 16.0084 3.37003 16.0723 3.40355C16.1362 3.43708 16.2075 3.45459 16.28 3.45455H19.8C20.1501 3.45455 20.4858 3.59103 20.7334 3.83398C20.9809 4.07692 21.12 4.40642 21.12 4.75V16.8409ZM11 6.04545C10.1298 6.04545 9.27907 6.29871 8.55549 6.7732C7.83191 7.24769 7.26796 7.9221 6.93493 8.71114C6.6019 9.50019 6.51477 10.3684 6.68454 11.2061C6.85432 12.0437 7.27338 12.8131 7.88873 13.4171C8.50408 14.021 9.28809 14.4322 10.1416 14.5988C10.9951 14.7655 11.8798 14.6799 12.6838 14.3531C13.4878 14.0263 14.175 13.4728 14.6585 12.7627C15.1419 12.0526 15.4 11.2177 15.4 10.3636C15.4 9.21838 14.9364 8.12004 14.1113 7.31022C13.2861 6.5004 12.167 6.04545 11 6.04545ZM11 13.8182C10.3038 13.8182 9.62325 13.6156 9.04439 13.236C8.46553 12.8564 8.01436 12.3169 7.74794 11.6856C7.48152 11.0544 7.41182 10.3598 7.54764 9.68969C7.68346 9.01957 8.0187 8.40403 8.51098 7.9209C9.00326 7.43778 9.63047 7.10876 10.3133 6.97547C10.9961 6.84217 11.7038 6.91059 12.347 7.17205C12.9902 7.43352 13.54 7.8763 13.9268 8.44439C14.3136 9.01249 14.52 9.68039 14.52 10.3636C14.52 11.2798 14.1491 12.1585 13.489 12.8064C12.8289 13.4542 11.9336 13.8182 11 13.8182Z" fill="black"/>
</svg>
