<svg width="26" height="26" viewBox="0 0 26 26" fill="none" xmlns="http://www.w3.org/2000/svg">
<path d="M4.6934 25H21.3066M4.6934 15.7684H21.3066M24.8692 6.35216C24.6815 5.57785 24.2958 4.86563 23.7499 4.28534C23.2041 3.70506 22.5168 3.27662 21.7556 3.04204C20.9943 2.80747 20.1852 2.77481 19.4075 2.94727C18.6298 3.11973 17.9102 3.49138 17.3194 4.0258C16.9969 3.13902 16.4094 2.37299 15.6367 1.83168C14.864 1.29036 13.9434 1 13 1C12.0566 1 11.136 1.29036 10.3633 1.83168C9.59055 2.37299 9.00306 3.13902 8.68057 4.0258C8.08975 3.49138 7.37022 3.11973 6.59253 2.94727C5.81484 2.77481 5.00569 2.80747 4.24443 3.04204C3.48316 3.27662 2.79591 3.70506 2.25006 4.28534C1.70422 4.86563 1.31852 5.57785 1.13079 6.35216C0.984125 6.95641 0.960531 7.58401 1.06142 8.19757C1.1623 8.81114 1.3856 9.39812 1.71802 9.92356C2.05044 10.449 2.48518 10.9022 2.99635 11.256C3.50752 11.6099 4.08466 11.8573 4.6934 11.9834V18.5379C4.6934 19.0276 4.88788 19.4972 5.23406 19.8434C5.58023 20.1897 6.04975 20.3842 6.53931 20.3842H19.4607C19.9503 20.3842 20.4198 20.1897 20.7659 19.8434C21.1121 19.4972 21.3066 19.0276 21.3066 18.5379V11.9834C21.9153 11.8573 22.4925 11.6099 23.0037 11.256C23.5148 10.9022 23.9496 10.449 24.282 9.92356C24.6144 9.39812 24.8377 8.81114 24.9386 8.19757C25.0395 7.58401 25.0159 6.95641 24.8692 6.35216Z" stroke="#00AAA8" stroke-linecap="round" stroke-linejoin="round"/>
</svg>
