<svg width="52" height="38" viewBox="0 0 52 38" fill="none" xmlns="http://www.w3.org/2000/svg">
<path d="M38.1333 10.7026V9.5C38.1333 4.085 29.9368 0 19.0667 0C8.1965 0 0 4.085 0 9.5V18.1364C0 22.6467 5.6875 26.2308 13.8667 27.3039V28.5C13.8667 33.915 22.0632 38 32.9333 38C43.8035 38 52 33.915 52 28.5V19.8636C52 15.3943 46.4923 11.8059 38.1333 10.7026ZM48.5333 19.8636C48.5333 22.718 41.8622 25.9091 32.9333 25.9091C32.1252 25.9091 31.3235 25.881 30.5327 25.8292C35.2062 24.1322 38.1333 21.375 38.1333 18.1364V14.1939C44.6052 15.1547 48.5333 17.7628 48.5333 19.8636ZM13.8667 23.804V18.6675C15.5909 18.8914 17.3279 19.0024 19.0667 19C20.8054 19.0024 22.5425 18.8914 24.2667 18.6675V23.804C22.545 24.0574 20.807 24.1837 19.0667 24.1818C17.3264 24.1837 15.5883 24.0574 13.8667 23.804ZM34.6667 15.0985V18.1364C34.6667 19.9478 31.9778 21.8932 27.7333 23.0742V18.0284C30.5305 17.3526 32.8987 16.3465 34.6667 15.0985ZM19.0667 3.45455C27.9955 3.45455 34.6667 6.64568 34.6667 9.5C34.6667 12.3543 27.9955 15.5455 19.0667 15.5455C10.1378 15.5455 3.46667 12.3543 3.46667 9.5C3.46667 6.64568 10.1378 3.45455 19.0667 3.45455ZM3.46667 18.1364V15.0985C5.23467 16.3465 7.60283 17.3526 10.4 18.0284V23.0742C6.1555 21.8932 3.46667 19.9478 3.46667 18.1364ZM17.3333 28.5V27.5997C17.9032 27.6213 18.4795 27.6364 19.0667 27.6364C19.9073 27.6364 20.7285 27.6083 21.5345 27.5608C22.4299 27.8802 23.3419 28.1512 24.2667 28.3726V33.4378C20.0222 32.2568 17.3333 30.3115 17.3333 28.5ZM27.7333 34.1676V29.0182C29.457 29.2491 31.1942 29.3645 32.9333 29.3636C34.6721 29.3661 36.4091 29.255 38.1333 29.0311V34.1676C34.6851 34.6714 31.1816 34.6714 27.7333 34.1676ZM41.6 33.4378V28.392C44.3972 27.7162 46.7653 26.7101 48.5333 25.4622V28.5C48.5333 30.3115 45.8445 32.2568 41.6 33.4378Z" fill="#FFC107"/>
</svg>
