<svg width="25" height="23" viewBox="0 0 25 23" fill="none" xmlns="http://www.w3.org/2000/svg">
<path fill-rule="evenodd" clip-rule="evenodd" d="M1.98783 15.586C-1.21397 8.14375 4.56721 0 13.0517 0H13.5089C15.0179 0 16.5122 0.281511 17.9063 0.828459C19.3005 1.37541 20.5673 2.17708 21.6343 3.18771C22.7014 4.19834 23.5478 5.39813 24.1253 6.71858C24.7028 8.03903 25 9.45428 25 10.8835C25 14.097 23.6522 17.1789 21.253 19.4512C18.8539 21.7234 15.6 23 12.2071 23H1.06916C0.847857 23.0002 0.631955 22.9353 0.451288 22.8142C0.270622 22.6932 0.134111 22.522 0.0606203 22.3242C-0.0128708 22.1265 -0.0197142 21.9121 0.0410359 21.7105C0.101786 21.509 0.22713 21.3303 0.399748 21.1991L3.20701 19.0637C3.26704 19.0182 3.30988 18.9554 3.32913 18.8849C3.34839 18.8144 3.34302 18.7399 3.31384 18.6725L1.98783 15.586ZM13.0517 2.02346C6.08265 2.02346 1.3355 8.71032 3.96473 14.8225L5.29217 17.9103C5.49442 18.381 5.53089 18.901 5.39618 19.3929C5.26146 19.8848 4.96274 20.3224 4.54442 20.6406L4.10431 20.9765H12.2071C15.0334 20.9765 17.7439 19.9132 19.7424 18.0204C21.7408 16.1276 22.8636 13.5604 22.8636 10.8835C22.8636 8.53369 21.878 6.2801 20.1236 4.61851C18.3693 2.95693 15.9899 2.02346 13.5089 2.02346H13.0517Z" fill="#303C58"/>
</svg>
