<svg width="25px" height="21px" viewBox="0 0 29 23" fill="none" xmlns="http://www.w3.org/2000/svg">
<path d="M9.96875 4.42308V0.884615C9.96875 0.650001 10.0642 0.424995 10.2342 0.259098C10.4041 0.0932002 10.6346 0 10.875 0C11.1154 0 11.3459 0.0932002 11.5158 0.259098C11.6858 0.424995 11.7812 0.650001 11.7812 0.884615V4.42308C11.7812 4.65769 11.6858 4.8827 11.5158 5.04859C11.3459 5.21449 11.1154 5.30769 10.875 5.30769C10.6346 5.30769 10.4041 5.21449 10.2342 5.04859C10.0642 4.8827 9.96875 4.65769 9.96875 4.42308ZM14.5 5.30769C14.7404 5.30769 14.9709 5.21449 15.1408 5.04859C15.3108 4.8827 15.4062 4.65769 15.4062 4.42308V0.884615C15.4062 0.650001 15.3108 0.424995 15.1408 0.259098C14.9709 0.0932002 14.7404 0 14.5 0C14.2596 0 14.0291 0.0932002 13.8592 0.259098C13.6892 0.424995 13.5938 0.650001 13.5938 0.884615V4.42308C13.5938 4.65769 13.6892 4.8827 13.8592 5.04859C14.0291 5.21449 14.2596 5.30769 14.5 5.30769ZM18.125 5.30769C18.3654 5.30769 18.5959 5.21449 18.7658 5.04859C18.9358 4.8827 19.0312 4.65769 19.0312 4.42308V0.884615C19.0312 0.650001 18.9358 0.424995 18.7658 0.259098C18.5959 0.0932002 18.3654 0 18.125 0C17.8846 0 17.6541 0.0932002 17.4842 0.259098C17.3142 0.424995 17.2187 0.650001 17.2187 0.884615V4.42308C17.2187 4.65769 17.3142 4.8827 17.4842 5.04859C17.6541 5.21449 17.8846 5.30769 18.125 5.30769ZM28.6375 10.4385L25.375 12.8269V19.4615C25.375 20.4 24.9931 21.3 24.3133 21.9636C23.6334 22.6272 22.7114 23 21.75 23H7.25C6.28859 23 5.36656 22.6272 4.68674 21.9636C4.00692 21.3 3.625 20.4 3.625 19.4615V12.8269L0.362504 10.4385C0.170222 10.2977 0.0431029 10.0881 0.00911197 9.85587C-0.024879 9.62362 0.0370422 9.38769 0.181254 9.2C0.325465 9.01231 0.540154 8.88822 0.77809 8.85504C1.01603 8.82187 1.25772 8.88231 1.45 9.02308L3.625 10.6154V8.84615C3.625 8.37692 3.81596 7.92691 4.15587 7.59512C4.49578 7.26332 4.9568 7.07692 5.4375 7.07692H23.5625C24.0432 7.07692 24.5042 7.26332 24.8441 7.59512C25.184 7.92691 25.375 8.37692 25.375 8.84615V10.6154L27.55 9.02308C27.7423 8.88231 27.984 8.82187 28.2219 8.85504C28.4598 8.88822 28.6745 9.01231 28.8187 9.2C28.963 9.38769 29.0249 9.62362 28.9909 9.85587C28.9569 10.0881 28.8298 10.2977 28.6375 10.4385ZM23.5625 8.84615H5.4375V19.4615C5.4375 19.9308 5.62846 20.3808 5.96837 20.7126C6.30828 21.0444 6.7693 21.2308 7.25 21.2308H21.75C22.2307 21.2308 22.6917 21.0444 23.0316 20.7126C23.3715 20.3808 23.5625 19.9308 23.5625 19.4615V8.84615Z" fill="#00AAA8"/>
</svg>
