<svg width="32" height="32" viewBox="0 0 32 32" fill="none" xmlns="http://www.w3.org/2000/svg">
<path d="M26.3846 21.7692H28.6923C29.3043 21.7692 29.8913 21.5261 30.3241 21.0933C30.7569 20.6606 31 20.0736 31 19.4616V16C31 15.388 30.7569 14.801 30.3241 14.3682C29.8913 13.9355 29.3043 13.6923 28.6923 13.6923H26.3846C26.0786 13.6923 25.7851 13.8139 25.5687 14.0303C25.3523 14.2467 25.2308 14.5401 25.2308 14.8462V20.6154C25.2308 20.9214 25.3523 21.2149 25.5687 21.4313C25.7851 21.6477 26.0786 21.7692 26.3846 21.7692ZM26.3846 21.7692V23.5C26.3846 24.7241 25.8984 25.898 25.0328 26.7636C24.1672 27.6291 22.9933 28.1154 21.7692 28.1154M3.30769 13.6923H5.61538C5.9214 13.6923 6.21489 13.8139 6.43128 14.0303C6.64766 14.2467 6.76923 14.5401 6.76923 14.8462V20.6154C6.76923 20.9214 6.64766 21.2149 6.43128 21.4313C6.21489 21.6477 5.9214 21.7692 5.61538 21.7692H3.30769C2.69565 21.7692 2.10868 21.5261 1.67591 21.0933C1.24313 20.6606 1 20.0736 1 19.4616V16C1 15.388 1.24313 14.801 1.67591 14.3682C2.10868 13.9355 2.69565 13.6923 3.30769 13.6923Z" stroke="#00AAA8" stroke-linecap="round" stroke-linejoin="round"/>
<path d="M5.61539 13.6923V11.3846C5.61539 8.63044 6.70948 5.98908 8.65697 4.04158C10.6045 2.09409 13.2458 1 16 1C18.7542 1 21.3955 2.09409 23.343 4.04158C25.2905 5.98908 26.3846 8.63044 26.3846 11.3846V13.6923M12.5385 9.07692V12.5385M19.4615 9.07692V12.5385M12.5385 17.1538C12.5385 20.2231 19.4615 20.2231 19.4615 17.1538M18.8846 25.2308C19.6497 25.2308 20.3834 25.5347 20.9243 26.0757C21.4653 26.6166 21.7692 27.3503 21.7692 28.1154C21.7692 28.8804 21.4653 29.6141 20.9243 30.1551C20.3834 30.6961 19.6497 31 18.8846 31H15.4231C14.658 31 13.9243 30.6961 13.3833 30.1551C12.8424 29.6141 12.5385 28.8804 12.5385 28.1154C12.5385 27.3503 12.8424 26.6166 13.3833 26.0757C13.9243 25.5347 14.658 25.2308 15.4231 25.2308H18.8846Z" stroke="#00AAA8" stroke-linecap="round" stroke-linejoin="round"/>
</svg>
