<svg width="22" height="22" viewBox="0 0 22 22" fill="none" xmlns="http://www.w3.org/2000/svg">
<mask id="mask0_318_235" style="mask-type:luminance" maskUnits="userSpaceOnUse" x="0" y="0" width="22" height="22">
<path d="M11 20C12.1821 20.0015 13.3529 19.7694 14.445 19.317C15.5372 18.8646 16.5291 18.2009 17.3639 17.3639C18.2009 16.5291 18.8646 15.5372 19.317 14.445C19.7694 13.3529 20.0015 12.1821 20 11C20.0015 9.81788 19.7694 8.64712 19.317 7.555C18.8646 6.46287 18.2009 5.4709 17.3639 4.63611C16.5291 3.79912 15.5372 3.13536 14.445 2.68297C13.3529 2.23057 12.1821 1.99848 11 2.00001C9.81788 1.9985 8.64712 2.23061 7.555 2.683C6.46287 3.13539 5.4709 3.79914 4.63611 4.63611C3.79914 5.4709 3.13539 6.46287 2.683 7.555C2.23061 8.64712 1.9985 9.81788 2.00001 11C1.99848 12.1821 2.23057 13.3529 2.68297 14.445C3.13536 15.5372 3.79912 16.5291 4.63611 17.3639C5.4709 18.2009 6.46287 18.8646 7.555 19.317C8.64712 19.7694 9.81788 20.0015 11 20Z" fill="white" stroke="white" stroke-width="4" stroke-linejoin="round"/>
<path d="M7.40002 10.9998L10.1 13.6998L15.5 8.2998" stroke="black" stroke-width="4" stroke-linecap="round" stroke-linejoin="round"/>
</mask>
<g mask="url(#mask0_318_235)">
<path d="M0.200012 0.200195H21.8V21.8002H0.200012V0.200195Z" fill="#E8604B"/>
</g>
</svg>
