<svg width="30" height="30" viewBox="0 0 30 30" fill="none" xmlns="http://www.w3.org/2000/svg">
<path d="M29.6574 17.9705C29.5065 17.8192 29.3172 17.7119 29.1099 17.6601C28.9026 17.6082 28.6851 17.6138 28.4808 17.6763C26.2371 18.3547 23.8515 18.4116 21.5781 17.8408C19.3047 17.2701 17.2287 16.0932 15.5713 14.4354C13.9138 12.7777 12.7371 10.7012 12.1665 8.42736C11.5959 6.15347 11.6528 3.76735 12.3311 1.52325C12.394 1.31876 12.4001 1.10098 12.3485 0.893326C12.297 0.685672 12.1898 0.495999 12.0386 0.344708C11.8873 0.193416 11.6977 0.0862293 11.4901 0.0346754C11.2824 -0.0168786 11.0647 -0.0108493 10.8603 0.0521147C7.75834 1.00253 5.03512 2.90728 3.07813 5.4953C1.36669 7.76799 0.322758 10.473 0.0636133 13.3064C-0.195531 16.1398 0.340379 18.9893 1.61113 21.5349C2.88189 24.0804 4.83715 26.2211 7.25723 27.7165C9.67732 29.2118 12.4664 30.0026 15.311 29.9999C18.6297 30.0102 21.8601 28.9311 24.5066 26.9282C27.0941 24.9708 28.9984 22.247 29.9487 19.1445C30.0109 18.9407 30.0167 18.7239 29.9654 18.5172C29.9141 18.3104 29.8077 18.1215 29.6574 17.9705ZM23.0917 25.0481C20.5994 26.9256 17.513 27.8396 14.4005 27.6216C11.288 27.4036 8.35899 26.0684 6.15265 23.8618C3.94632 21.6552 2.61116 18.7257 2.39297 15.6126C2.17478 12.4994 3.08824 9.41227 4.9652 6.91935C6.18805 5.30414 7.76898 3.99482 9.58359 3.09441C9.48022 3.82001 9.42812 4.552 9.42768 5.28493C9.43197 9.34136 11.0449 13.2304 13.9127 16.0988C16.7804 18.9671 20.6687 20.5804 24.7243 20.5847C25.4585 20.5845 26.1919 20.5324 26.9188 20.4288C26.0177 22.244 24.7076 23.8253 23.0917 25.0481Z" fill="#00AAA8"/>
</svg>
