<svg width="34" height="34" viewBox="0 0 34 34" fill="none" xmlns="http://www.w3.org/2000/svg">
<mask id="mask0_286_905" style="mask-type:luminance" maskUnits="userSpaceOnUse" x="0" y="0" width="34" height="34">
<path d="M17 32C18.9702 32.0025 20.9215 31.6157 22.7417 30.8617C24.5619 30.1077 26.2152 29.0015 27.6065 27.6065C29.0015 26.2152 30.1077 24.5619 30.8617 22.7417C31.6157 20.9215 32.0025 18.9702 32 17C32.0025 15.0298 31.6156 13.0785 30.8617 11.2583C30.1077 9.43811 29.0014 7.78484 27.6065 6.39351C26.2152 4.99853 24.5619 3.89226 22.7417 3.13828C20.9215 2.38429 18.9702 1.99746 17 2.00001C15.0298 1.9975 13.0785 2.38435 11.2583 3.13833C9.43811 3.89231 7.78484 4.99856 6.39351 6.39351C4.99856 7.78484 3.89231 9.43811 3.13833 11.2583C2.38435 13.0785 1.9975 15.0298 2.00001 17C1.99746 18.9702 2.38429 20.9215 3.13828 22.7417C3.89226 24.5619 4.99853 26.2152 6.39351 27.6065C7.78484 29.0014 9.43811 30.1077 11.2583 30.8617C13.0785 31.6156 15.0298 32.0025 17 32Z" fill="white" stroke="white" stroke-width="4" stroke-linejoin="round"/>
<path d="M11 17L15.5 21.5L24.5 12.5" stroke="black" stroke-width="4" stroke-linecap="round" stroke-linejoin="round"/>
</mask>
<g mask="url(#mask0_286_905)">
<path d="M-1 -1H35V35H-1V-1Z" fill="#00DA16"/>
</g>
</svg>
