<svg width="19" height="19" viewBox="0 0 19 19" fill="none" xmlns="http://www.w3.org/2000/svg">
<g clip-path="url(#clip0_379_743)">
<path d="M15.7708 7.63161L16.5046 6.89773C17.0884 6.31393 17.4164 5.52213 17.4164 4.6965C17.4164 3.87088 17.0884 3.07908 16.5046 2.49528C15.9208 1.91147 15.129 1.5835 14.3034 1.5835C13.4778 1.5835 12.686 1.91147 12.1022 2.49528L11.3683 3.22915L4.62172 9.97415C4.16493 10.4317 3.93614 10.6605 3.73981 10.9123C3.50793 11.2094 3.30911 11.5308 3.14685 11.871C3.00989 12.1592 2.90777 12.4663 2.70352 13.0791L1.83743 15.6765M15.7708 7.63161C15.7708 7.63161 14.212 7.53978 12.8361 6.16386C11.4601 4.78873 11.3691 3.22915 11.3691 3.22915M15.7708 7.63161L9.02497 14.3766C8.56818 14.8334 8.33939 15.0622 8.08764 15.2585C7.79055 15.4904 7.46909 15.6892 7.12893 15.8515C6.84077 15.9884 6.53439 16.0906 5.92085 16.2948L3.32339 17.1609M3.32339 17.1609L2.68847 17.3731C2.54048 17.4227 2.38157 17.4301 2.22961 17.3943C2.07766 17.3586 1.93868 17.2812 1.82831 17.1708C1.71793 17.0604 1.64052 16.9215 1.6048 16.7695C1.56907 16.6176 1.57643 16.4587 1.62606 16.3107L1.83822 15.6757L3.32339 17.1609Z" stroke="#00AAA8" stroke-width="1.5"/>
</g>
<defs>
<clipPath id="clip0_379_743">
<rect width="19" height="19" fill="white"/>
</clipPath>
</defs>
</svg>
