<svg width="16" height="17" viewBox="0 0 16 17" fill="none" xmlns="http://www.w3.org/2000/svg">
<path d="M0.177021 1.50644C0.121608 1.55518 0.077122 1.61549 0.0465796 1.68328C0.0160371 1.75107 0.000151676 1.82476 0 1.89936V16.4796C0 16.6176 0.0537992 16.75 0.149562 16.8476C0.245326 16.9452 0.375209 17 0.510638 17C0.646068 17 0.775951 16.9452 0.871714 16.8476C0.967477 16.75 1.02128 16.6176 1.02128 16.4796V12.5574C3.41106 10.5807 5.4366 11.6033 7.77362 12.7803C9.14553 13.4742 10.6238 14.2184 12.1991 14.2184C13.354 14.2184 14.5617 13.8194 15.8213 12.7075C15.8768 12.6591 15.9215 12.5991 15.9523 12.5316C15.9831 12.4642 15.9994 12.3907 16 12.3163V1.89936C16.0001 1.79954 15.972 1.70179 15.9191 1.61778C15.8662 1.53377 15.7908 1.46703 15.7017 1.42552C15.6126 1.38402 15.5137 1.3695 15.4168 1.38369C15.3198 1.39788 15.2289 1.44019 15.1549 1.50558C12.6868 3.68437 10.6204 2.64094 8.22638 1.43272C5.85277 0.234901 3.14894 -1.11384 0.177021 1.50644ZM14.9787 12.0708C12.5889 14.0484 10.5634 13.0249 8.22638 11.847C6.0766 10.762 3.66723 9.54682 1.02128 11.2755V2.14395C3.41106 0.16638 5.4366 1.18986 7.77362 2.36599C9.9234 3.45105 12.3328 4.66622 14.9787 2.94105V12.0708Z" fill="black" fill-opacity="0.5"/>
</svg>
