<svg width="13" height="18" viewBox="0 0 13 18" fill="none" xmlns="http://www.w3.org/2000/svg">
<path d="M12.6581 0H9.23881C9.14812 0 9.06115 0.0364697 8.99703 0.101386C8.93291 0.166303 8.89688 0.254348 8.89688 0.346154C8.89688 0.43796 8.93291 0.526005 8.99703 0.590922C9.06115 0.655838 9.14812 0.692308 9.23881 0.692308H11.8323L8.85842 3.70298C8.28486 3.08792 7.57157 2.62403 6.78057 2.35164C5.98957 2.07925 5.14481 2.00662 4.31976 2.14006C3.49472 2.2735 2.71436 2.60897 2.04657 3.1173C1.37877 3.62562 0.843751 4.29142 0.48804 5.05677C0.132329 5.82212 -0.0333023 6.66386 0.00554854 7.50879C0.0443994 8.35371 0.286557 9.17623 0.710961 9.90483C1.13537 10.6334 1.72917 11.246 2.44072 11.6893C3.15228 12.1327 3.96004 12.3933 4.79376 12.4486V14.5385H2.40028C2.30959 14.5385 2.22262 14.5749 2.1585 14.6398C2.09438 14.7048 2.05835 14.7928 2.05835 14.8846C2.05835 14.9764 2.09438 15.0645 2.1585 15.1294C2.22262 15.1943 2.30959 15.2308 2.40028 15.2308H4.79376V17.6538C4.79376 17.7457 4.82979 17.8337 4.89391 17.8986C4.95804 17.9635 5.04501 18 5.13569 18C5.22638 18 5.31335 17.9635 5.37747 17.8986C5.44159 17.8337 5.47762 17.7457 5.47762 17.6538V15.2308H7.8711C7.96179 15.2308 8.04876 15.1943 8.11288 15.1294C8.177 15.0645 8.21303 14.9764 8.21303 14.8846C8.21303 14.7928 8.177 14.7048 8.11288 14.6398C8.04876 14.5749 7.96179 14.5385 7.8711 14.5385H5.47762V12.4486C6.39016 12.3875 7.26994 12.0803 8.02564 11.5589C8.78133 11.0375 9.38539 10.3208 9.77512 9.48319C10.1648 8.64563 10.326 7.71772 10.2419 6.7958C10.1579 5.87388 9.83156 4.99155 9.29694 4.24038L12.3161 1.18212V3.80769C12.3161 3.8995 12.3522 3.98754 12.4163 4.05246C12.4804 4.11738 12.5674 4.15385 12.6581 4.15385C12.7488 4.15385 12.8357 4.11738 12.8999 4.05246C12.964 3.98754 13 3.8995 13 3.80769V0.346154C13 0.254348 12.964 0.166303 12.8999 0.101386C12.8357 0.0364697 12.7488 0 12.6581 0ZM5.13569 11.7692C4.25654 11.7692 3.39714 11.5053 2.66616 11.0108C1.93517 10.5164 1.36544 9.81357 1.02901 8.99131C0.69257 8.16904 0.604544 7.26424 0.776057 6.39132C0.94757 5.51841 1.37092 4.71659 1.99257 4.08725C2.61422 3.45791 3.40625 3.02933 4.26851 2.8557C5.13076 2.68206 6.02451 2.77118 6.83673 3.11177C7.64896 3.45237 8.34318 4.02914 8.83161 4.76917C9.32004 5.50919 9.58073 6.37921 9.58073 7.26923C9.57938 8.46228 9.11063 9.60608 8.27731 10.4497C7.444 11.2933 6.31417 11.7679 5.13569 11.7692Z" fill="black" fill-opacity="0.5"/>
</svg>
