<svg width="16" height="20" viewBox="0 0 16 20" fill="none" xmlns="http://www.w3.org/2000/svg">
<path d="M8.00475 0C8.79827 0 9.55928 0.316071 10.1204 0.87868C10.6815 1.44129 10.9967 2.20435 10.9967 3C10.9967 3.79565 10.6815 4.55871 10.1204 5.12132C9.55928 5.68393 8.79827 6 8.00475 6C7.21123 6 6.45021 5.68393 5.8891 5.12132C5.328 4.55871 5.01278 3.79565 5.01278 3C5.01278 2.20435 5.328 1.44129 5.8891 0.87868C6.45021 0.316071 7.21123 0 8.00475 0ZM15.9833 16L13.9887 10.56C13.6396 9.57 13.3305 8.71 11.994 8C10.6177 7.3 9.62041 7 8.00475 7C6.37911 7 5.39176 7.3 4.01545 8C2.67904 8.71 2.36987 9.57 2.02081 10.56L0.0261596 16C-0.292984 17.35 2.37984 18.44 4.12516 19.19V17C4.12516 16.05 4.98286 15.38 6.69825 14.97C6.85782 14.93 7.00742 14.91 7.1271 14.89C6.58855 14.07 6.36914 13.34 6.34919 13.28L8.11445 12.68C8.12442 12.7 8.63306 14.27 9.83982 15.06C10.0493 15.13 10.2587 15.21 10.4582 15.3C11.2261 15.64 11.6849 16.08 11.8345 16.61C10.4981 17.14 9.22148 17.41 8.00475 17.41L7.00742 17.31V19.94L8.00475 20C9.37108 20 10.6676 19.72 11.8843 19.19C13.6296 18.44 16.2327 17.13 15.9833 16ZM11.4954 15C11.0986 15 10.7181 14.842 10.4376 14.5607C10.157 14.2794 9.99939 13.8978 9.99939 13.5C9.99939 13.1022 10.157 12.7206 10.4376 12.4393C10.7181 12.158 11.0986 12 11.4954 12C11.8921 12 12.2726 12.158 12.5532 12.4393C12.8337 12.7206 12.9914 13.1022 12.9914 13.5C12.9914 13.8978 12.8337 14.2794 12.5532 14.5607C12.2726 14.842 11.8921 15 11.4954 15Z" fill="black" fill-opacity="0.5"/>
</svg>
