<svg width="30" height="30" viewBox="0 0 30 30" fill="none" xmlns="http://www.w3.org/2000/svg">
<path fill-rule="evenodd" clip-rule="evenodd" d="M14.9205 0C11.6986 0 9.17442 8.31693e-08 7.20419 0.265116C5.1893 0.535814 3.5986 1.10233 2.34977 2.34977C1.10093 3.5986 0.535814 5.1893 0.265116 7.20558C8.31693e-08 9.17442 0 11.6986 0 14.9205V15.0795C0 18.3014 8.31693e-08 20.8256 0.265116 22.7958C0.535814 24.8107 1.10233 26.4014 2.34977 27.6502C3.5986 28.8991 5.1893 29.4642 7.20558 29.7349C9.17442 30 11.6986 30 14.9205 30H15.0795C18.3014 30 20.8256 30 22.7958 29.7349C24.8107 29.4642 26.4014 28.8977 27.6502 27.6502C28.8991 26.4014 29.4642 24.8107 29.7349 22.7944C30 20.8256 30 18.3014 30 15.0795V14.9205C30 11.6986 30 9.17442 29.7349 7.20419C29.4642 5.1893 28.8977 3.5986 27.6502 2.34977C26.4014 1.10093 24.8107 0.535814 22.7944 0.265116C20.8256 8.31693e-08 18.3014 0 15.0795 0H14.9205ZM13.9535 2.09302C11.1712 2.09581 9.10186 2.12093 7.48465 2.3386C5.7 2.5786 4.62419 3.03628 3.82884 3.83023C3.03488 4.62558 2.5786 5.7 2.3386 7.48465C2.12233 9.10186 2.09581 11.1712 2.09302 13.9535H7.90326C7.4022 13.3276 7.04236 12.6007 6.84837 11.8228C6.09628 8.8186 8.8186 6.09628 11.8228 6.84837C12.6007 7.04244 13.3275 7.40227 13.9535 7.90326V2.09302ZM2.09302 16.0465C2.09581 18.8288 2.12093 20.8981 2.3386 22.5153C2.5786 24.3 3.03628 25.3758 3.83023 26.1712C4.62558 26.9651 5.7 27.4214 7.48465 27.6614C9.10186 27.8777 11.1712 27.9042 13.9535 27.907V17.9637C13.4029 19.065 12.5565 19.9912 11.509 20.6384C10.4615 21.2856 9.25452 21.6283 8.02326 21.6279C7.7457 21.6279 7.47952 21.5177 7.28326 21.3214C7.087 21.1251 6.97674 20.8589 6.97674 20.5814C6.97674 20.3038 7.087 20.0377 7.28326 19.8414C7.47952 19.6451 7.7457 19.5349 8.02326 19.5349C9.04412 19.5349 10.0351 19.1905 10.836 18.5575C11.637 17.9244 12.2009 17.0398 12.4367 16.0465H2.09302ZM16.0465 27.907C18.8288 27.9042 20.8981 27.8791 22.5153 27.6614C24.3 27.4214 25.3758 26.9637 26.1712 26.1698C26.9651 25.3744 27.4214 24.3 27.6614 22.5153C27.8777 20.8981 27.9042 18.8288 27.907 16.0465H17.5633C17.7991 17.0398 18.363 17.9244 19.164 18.5575C19.9649 19.1905 20.9559 19.5349 21.9767 19.5349C22.2543 19.5349 22.5205 19.6451 22.7167 19.8414C22.913 20.0377 23.0233 20.3038 23.0233 20.5814C23.0233 20.8589 22.913 21.1251 22.7167 21.3214C22.5205 21.5177 22.2543 21.6279 21.9767 21.6279C20.7455 21.6283 19.5384 21.2856 18.491 20.6384C17.4435 19.9912 16.5971 19.065 16.0465 17.9637V27.907ZM27.907 13.9535H22.0967C22.5982 13.3276 22.9585 12.6008 23.153 11.8228C23.9037 8.8186 21.1814 6.09628 18.1772 6.84837C17.3993 7.04236 16.6724 7.4022 16.0465 7.90326V2.09302C18.8288 2.09581 20.8981 2.12093 22.5153 2.3386C24.3 2.5786 25.3758 3.03628 26.1712 3.83023C26.9651 4.62558 27.4214 5.7 27.6614 7.48465C27.8777 9.10186 27.9042 11.1712 27.907 13.9535ZM16.0465 13.9535V12.2512C16.0482 11.4755 16.3086 10.7226 16.7866 10.1117C17.2645 9.50079 17.9327 9.06685 18.6851 8.8786C19.0217 8.79455 19.3743 8.79907 19.7086 8.8917C20.0428 8.98434 20.3475 9.16195 20.5928 9.40724C20.838 9.65253 21.0157 9.95715 21.1083 10.2914C21.2009 10.6257 21.2054 10.9783 21.1214 11.3149C20.9333 12.0669 20.4997 12.7347 19.8894 13.2126C19.2791 13.6905 18.5268 13.9512 17.7516 13.9535H16.0465ZM13.9535 12.247C13.9509 11.472 13.69 10.7201 13.2122 10.11C12.7343 9.49999 12.0667 9.06667 11.3149 8.8786C10.9783 8.79455 10.6257 8.79907 10.2914 8.8917C9.95715 8.98434 9.65253 9.16195 9.40724 9.40724C9.16195 9.65253 8.98434 9.95715 8.8917 10.2914C8.79907 10.6257 8.79455 10.9783 8.8786 11.3149C9.06673 12.0669 9.50026 12.7347 10.1106 13.2126C10.7209 13.6905 11.4732 13.9512 12.2484 13.9535H13.9535V12.247Z" fill="#00AAA8"/>
</svg>
