<svg width="24" height="24" viewBox="0 0 24 24" fill="none" xmlns="http://www.w3.org/2000/svg">
<path d="M23.7666 9.6498H22.8V9.6H12V14.4H18.7818C17.7924 17.1942 15.1338 19.2 12 19.2C8.0238 19.2 4.8 15.9762 4.8 12C4.8 8.0238 8.0238 4.8 12 4.8C13.8354 4.8 15.5052 5.4924 16.7766 6.6234L20.1708 3.2292C18.0276 1.2318 15.1608 0 12 0C5.373 0 0 5.373 0 12C0 18.627 5.373 24 12 24C18.627 24 24 18.627 24 12C24 11.1954 23.9172 10.41 23.7666 9.6498Z" fill="#FFC107"/>
<path d="M1 6.20367L4.98726 9C6.06614 6.44565 8.679 4.64217 11.7367 4.64217C13.5928 4.64217 15.2816 5.3118 16.5674 6.40561L20 3.12302C17.8325 1.1913 14.9333 0 11.7367 0C7.07524 0 3.03277 2.51663 1 6.20367Z" fill="#FF3D00"/>
<path d="M11.8379 24C14.9825 24 17.8397 22.7602 20 20.744L16.2321 17.4592C14.9688 18.449 13.4251 18.9844 11.8379 18.9831C8.67146 18.9831 5.98283 16.9029 4.96995 14L1 17.1513C3.0148 21.2131 7.10649 24 11.8379 24Z" fill="#4CAF50"/>
<path d="M23.7666 10.0485H22.8V10H12V14.6738H18.7818C18.3085 15.9687 17.456 17.1002 16.3296 17.9286L16.3314 17.9274L20.0454 20.9876C19.7826 21.2201 24 18.1792 24 12.3369C24 11.5535 23.9172 10.7887 23.7666 10.0485Z" fill="#1976D2"/>
</svg>
