<svg width="26" height="22" viewBox="0 0 26 22" fill="none" xmlns="http://www.w3.org/2000/svg">
<path d="M26 7.10584C26 15.1286 13.9529 21.6224 13.4399 21.8906C13.3047 21.9624 13.1535 22 13 22C12.8465 22 12.6953 21.9624 12.5601 21.8906C12.0471 21.6224 0 15.1286 0 7.10584C0.0021505 5.22191 0.761034 3.41574 2.11016 2.0836C3.45929 0.751455 5.28848 0.00212343 7.19643 0C9.5933 0 11.6919 1.01774 13 2.73804C14.3081 1.01774 16.4067 0 18.8036 0C20.7115 0.00212343 22.5407 0.751455 23.8898 2.0836C25.239 3.41574 25.9978 5.22191 26 7.10584Z" fill="#FF006B"/>
</svg>