<svg width="18" height="21" viewBox="0 0 18 21" fill="none" xmlns="http://www.w3.org/2000/svg">
<path d="M3 8V6.25C3 2.845 5.503 0 9 0C12.497 0 15 2.845 15 6.25V8H15.5C16.163 8 16.7989 8.26339 17.2678 8.73223C17.7366 9.20107 18 9.83696 18 10.5V18.5C18 19.163 17.7366 19.7989 17.2678 20.2678C16.7989 20.7366 16.163 21 15.5 21H2.5C1.83696 21 1.20107 20.7366 0.732233 20.2678C0.263392 19.7989 0 19.163 0 18.5V10.5C0 9.83696 0.263392 9.20107 0.732233 8.73223C1.20107 8.26339 1.83696 8 2.5 8H3ZM1.5 10.5V18.5C1.5 18.7652 1.60536 19.0196 1.79289 19.2071C1.98043 19.3946 2.23478 19.5 2.5 19.5H15.5C15.7652 19.5 16.0196 19.3946 16.2071 19.2071C16.3946 19.0196 16.5 18.7652 16.5 18.5V10.5C16.5 10.2348 16.3946 9.98043 16.2071 9.79289C16.0196 9.60536 15.7652 9.5 15.5 9.5H2.5C2.23478 9.5 1.98043 9.60536 1.79289 9.79289C1.60536 9.98043 1.5 10.2348 1.5 10.5ZM4.5 6.25V8H13.5V6.25C13.5 3.58 11.578 1.5 9 1.5C6.422 1.5 4.5 3.58 4.5 6.25Z" fill="black" fill-opacity="0.5"/>
</svg>
