<svg width="33" height="33" viewBox="0 0 33 33" fill="none" xmlns="http://www.w3.org/2000/svg">
<path d="M15.4 4.4V1.1C15.4 0.808262 15.5159 0.528472 15.7222 0.322183C15.9285 0.115892 16.2083 0 16.5 0C16.7917 0 17.0715 0.115892 17.2778 0.322183C17.4841 0.528472 17.6 0.808262 17.6 1.1V4.4C17.6 4.69174 17.4841 4.97153 17.2778 5.17782C17.0715 5.38411 16.7917 5.5 16.5 5.5C16.2083 5.5 15.9285 5.38411 15.7222 5.17782C15.5159 4.97153 15.4 4.69174 15.4 4.4ZM25.3 16.5C25.3 18.2405 24.7839 19.9419 23.8169 21.389C22.85 22.8362 21.4756 23.9641 19.8676 24.6301C18.2596 25.2962 16.4902 25.4705 14.7832 25.1309C13.0762 24.7914 11.5082 23.9532 10.2775 22.7225C9.04676 21.4918 8.20864 19.9238 7.86909 18.2168C7.52954 16.5098 7.70381 14.7404 8.36986 13.1324C9.03591 11.5244 10.1638 10.15 11.611 9.18307C13.0581 8.21611 14.7595 7.7 16.5 7.7C18.8331 7.70255 21.07 8.63051 22.7197 10.2803C24.3695 11.93 25.2975 14.1669 25.3 16.5ZM23.1 16.5C23.1 15.1946 22.7129 13.9186 21.9877 12.8332C21.2625 11.7479 20.2317 10.9019 19.0257 10.4024C17.8197 9.90286 16.4927 9.77216 15.2124 10.0268C13.9321 10.2815 12.7561 10.9101 11.8331 11.8331C10.9101 12.7561 10.2815 13.9321 10.0268 15.2124C9.77216 16.4927 9.90286 17.8197 10.4024 19.0257C10.9019 20.2317 11.7479 21.2625 12.8332 21.9877C13.9186 22.7129 15.1946 23.1 16.5 23.1C18.2499 23.0982 19.9275 22.4022 21.1649 21.1649C22.4022 19.9275 23.0982 18.2499 23.1 16.5ZM6.92175 8.47825C7.12815 8.68466 7.4081 8.80061 7.7 8.80061C7.9919 8.80061 8.27184 8.68465 8.47825 8.47825C8.68465 8.27184 8.80061 7.9919 8.80061 7.7C8.80061 7.4081 8.68466 7.12815 8.47825 6.92175L6.27825 4.72175C6.07185 4.51535 5.7919 4.39939 5.5 4.39939C5.2081 4.39939 4.92815 4.51535 4.72175 4.72175C4.51535 4.92815 4.39939 5.2081 4.39939 5.5C4.39939 5.7919 4.51535 6.07185 4.72175 6.27825L6.92175 8.47825ZM6.92175 24.5217L4.72175 26.7218C4.51535 26.9282 4.39939 27.2081 4.39939 27.5C4.39939 27.7919 4.51535 28.0718 4.72175 28.2783C4.92815 28.4847 5.2081 28.6006 5.5 28.6006C5.7919 28.6006 6.07185 28.4847 6.27825 28.2783L8.47825 26.0783C8.58045 25.976 8.66152 25.8547 8.71683 25.7212C8.77214 25.5877 8.80061 25.4445 8.80061 25.3C8.80061 25.1555 8.77214 25.0123 8.71683 24.8788C8.66152 24.7453 8.58045 24.624 8.47825 24.5217C8.37605 24.4195 8.25472 24.3385 8.12119 24.2832C7.98765 24.2279 7.84453 24.1994 7.7 24.1994C7.55547 24.1994 7.41235 24.2279 7.27881 24.2832C7.14528 24.3385 7.02395 24.4195 6.92175 24.5217ZM25.3 8.8C25.4445 8.80011 25.5876 8.77176 25.7211 8.71655C25.8547 8.66134 25.976 8.58037 26.0783 8.47825L28.2783 6.27825C28.4847 6.07185 28.6006 5.7919 28.6006 5.5C28.6006 5.2081 28.4847 4.92815 28.2783 4.72175C28.0718 4.51535 27.7919 4.39939 27.5 4.39939C27.2081 4.39939 26.9282 4.51535 26.7218 4.72175L24.5217 6.92175C24.3677 7.07559 24.2628 7.27167 24.2203 7.48516C24.1778 7.69866 24.1996 7.91996 24.2829 8.12107C24.3662 8.32218 24.5074 8.49403 24.6884 8.61489C24.8695 8.73575 25.0823 8.80017 25.3 8.8ZM26.0783 24.5217C25.8718 24.3153 25.5919 24.1994 25.3 24.1994C25.0081 24.1994 24.7282 24.3153 24.5217 24.5217C24.3153 24.7282 24.1994 25.0081 24.1994 25.3C24.1994 25.5919 24.3153 25.8718 24.5217 26.0783L26.7218 28.2783C26.824 28.3805 26.9453 28.4615 27.0788 28.5168C27.2123 28.5721 27.3555 28.6006 27.5 28.6006C27.6445 28.6006 27.7877 28.5721 27.9212 28.5168C28.0547 28.4615 28.1761 28.3805 28.2783 28.2783C28.3805 28.1761 28.4615 28.0547 28.5168 27.9212C28.5721 27.7877 28.6006 27.6445 28.6006 27.5C28.6006 27.3555 28.5721 27.2123 28.5168 27.0788C28.4615 26.9453 28.3805 26.824 28.2783 26.7218L26.0783 24.5217ZM5.5 16.5C5.5 16.2083 5.38411 15.9285 5.17782 15.7222C4.97153 15.5159 4.69174 15.4 4.4 15.4H1.1C0.808262 15.4 0.528472 15.5159 0.322183 15.7222C0.115892 15.9285 0 16.2083 0 16.5C0 16.7917 0.115892 17.0715 0.322183 17.2778C0.528472 17.4841 0.808262 17.6 1.1 17.6H4.4C4.69174 17.6 4.97153 17.4841 5.17782 17.2778C5.38411 17.0715 5.5 16.7917 5.5 16.5ZM16.5 27.5C16.2083 27.5 15.9285 27.6159 15.7222 27.8222C15.5159 28.0285 15.4 28.3083 15.4 28.6V31.9C15.4 32.1917 15.5159 32.4715 15.7222 32.6778C15.9285 32.8841 16.2083 33 16.5 33C16.7917 33 17.0715 32.8841 17.2778 32.6778C17.4841 32.4715 17.6 32.1917 17.6 31.9V28.6C17.6 28.3083 17.4841 28.0285 17.2778 27.8222C17.0715 27.6159 16.7917 27.5 16.5 27.5ZM31.9 15.4H28.6C28.3083 15.4 28.0285 15.5159 27.8222 15.7222C27.6159 15.9285 27.5 16.2083 27.5 16.5C27.5 16.7917 27.6159 17.0715 27.8222 17.2778C28.0285 17.4841 28.3083 17.6 28.6 17.6H31.9C32.1917 17.6 32.4715 17.4841 32.6778 17.2778C32.8841 17.0715 33 16.7917 33 16.5C33 16.2083 32.8841 15.9285 32.6778 15.7222C32.4715 15.5159 32.1917 15.4 31.9 15.4Z" fill="black"/>
</svg>
