<svg width="30" height="30" viewBox="0 0 30 30" fill="none" xmlns="http://www.w3.org/2000/svg">
<mask id="mask0_379_1001" style="mask-type:luminance" maskUnits="userSpaceOnUse" x="0" y="0" width="30" height="30">
<path d="M15 28C16.7075 28.0022 18.3986 27.6669 19.9761 27.0135C21.5537 26.36 22.9865 25.4013 24.1923 24.1923C25.4013 22.9865 26.36 21.5537 27.0135 19.9761C27.6669 18.3986 28.0022 16.7075 28 15C28.0022 13.2925 27.6669 11.6014 27.0134 10.0239C26.36 8.44636 25.4012 7.01353 24.1923 5.80771C22.9865 4.59873 21.5537 3.63996 19.9761 2.98651C18.3986 2.33305 16.7075 1.9978 15 2.00001C13.2925 1.99783 11.6014 2.3331 10.0239 2.98656C8.44636 3.64001 7.01353 4.59876 5.80771 5.80771C4.59876 7.01353 3.64001 8.44636 2.98656 10.0239C2.3331 11.6014 1.99783 13.2925 2.00001 15C1.9978 16.7075 2.33305 18.3986 2.98651 19.9761C3.63996 21.5537 4.59873 22.9865 5.80771 24.1923C7.01353 25.4012 8.44636 26.36 10.0239 27.0134C11.6014 27.6669 13.2925 28.0022 15 28Z" fill="white" stroke="white" stroke-width="4" stroke-linejoin="round"/>
<path d="M9.7998 15.0001L13.6998 18.9001L21.4998 11.1001" stroke="black" stroke-width="4" stroke-linecap="round" stroke-linejoin="round"/>
</mask>
<g mask="url(#mask0_379_1001)">
<path d="M-0.600098 -0.600098H30.5999V30.5999H-0.600098V-0.600098Z" fill="#00AAA8"/>
</g>
</svg>
