<svg width="22" height="15" viewBox="0 0 22 15" fill="none" xmlns="http://www.w3.org/2000/svg">
<path d="M8.18138 1.11746C6.88739 0.857591 5.54381 1.03164 4.35875 1.61264C3.17368 2.19364 2.21325 3.14918 1.6262 4.33126C1.03915 5.51335 0.858247 6.85602 1.1115 8.15132C1.36476 9.44662 2.03804 10.6223 3.02708 11.4962C4.01612 12.3701 5.26572 12.8936 6.58234 12.9855C7.89897 13.0773 9.20916 12.7325 10.31 12.0044C11.4108 11.2763 12.2408 10.2056 12.6715 8.95798C13.1022 7.7104 13.1096 6.35562 12.6924 5.10346" stroke="black" stroke-opacity="0.5" stroke-width="2" stroke-linecap="round" stroke-linejoin="round"/>
<path d="M13.8114 12.8835C15.1068 13.1446 16.4521 12.9709 17.6386 12.3892C18.8251 11.8075 19.7864 10.8503 20.3732 9.66634C20.96 8.48235 21.1396 7.13776 20.884 5.84129C20.6284 4.54481 19.952 3.36897 18.9597 2.49631C17.9674 1.62364 16.7148 1.10296 15.3963 1.0151C14.0778 0.927235 12.7671 1.2771 11.6678 2.01038C10.5685 2.74367 9.74203 3.81935 9.31666 5.07045C8.8913 6.32155 8.89085 7.67807 9.31539 8.92945" stroke="black" stroke-opacity="0.5" stroke-width="2" stroke-linecap="round" stroke-linejoin="round"/>
</svg>
