<svg width="27" height="27" viewBox="0 0 27 27" fill="none" xmlns="http://www.w3.org/2000/svg">
<path d="M26.9396 1.15728C27.001 1.00395 27.016 0.83598 26.9828 0.674191C26.9496 0.512402 26.8697 0.36391 26.7529 0.247126C26.6361 0.130341 26.4876 0.0503996 26.3258 0.0172112C26.164 -0.0159772 25.9961 -0.00095274 25.8427 0.060422L1.29553 9.87986H1.29385L0.531122 10.1836C0.38666 10.2412 0.260938 10.3377 0.167842 10.4623C0.0747462 10.5869 0.0179 10.7348 0.00358281 10.8896C-0.0107344 11.0445 0.0180347 11.2003 0.0867121 11.3399C0.15539 11.4794 0.261303 11.5973 0.392752 11.6804L1.0846 12.1191L1.08629 12.1225L9.51506 17.4853L14.8777 25.9143L14.8811 25.9177L15.3199 26.6095C15.4033 26.7405 15.5212 26.8459 15.6606 26.9141C15.8001 26.9824 15.9556 27.0108 16.1102 26.9963C16.2648 26.9818 16.4123 26.925 16.5367 26.832C16.661 26.7391 16.7573 26.6136 16.8149 26.4695L26.9396 1.15728ZM23.8465 4.34662L11.2008 16.9926L10.838 16.4222C10.7715 16.3176 10.6828 16.2288 10.5781 16.1623L10.0078 15.7995L22.6535 3.15357L24.6413 2.35877L23.8482 4.34662H23.8465Z" fill="black"/>
</svg>
