<svg width="31" height="24" viewBox="0 0 31 24" fill="none" xmlns="http://www.w3.org/2000/svg">
<path d="M2.49937 16.612C1.89796 14.6826 1.77736 12.6461 2.14716 10.6645C2.51696 8.68294 3.36695 6.81102 4.62945 5.19781C5.89196 3.58461 7.53212 2.27466 9.41933 1.37228C11.3065 0.469898 13.3887 0 15.5 0C17.6113 0 19.6935 0.469898 21.5807 1.37228C23.4679 2.27466 25.108 3.58461 26.3705 5.19781C27.6331 6.81102 28.483 8.68294 28.8528 10.6645C29.2226 12.6461 29.102 14.6826 28.5006 16.612H26.4662C27.0845 14.9407 27.2732 13.1524 27.0167 11.3972C26.7602 9.64206 26.0658 7.97111 24.9919 6.52458C23.918 5.07805 22.4959 3.89813 20.8448 3.0838C19.1937 2.26947 17.3619 1.84448 15.5029 1.84448C13.6439 1.84448 11.8121 2.26947 10.161 3.0838C8.50994 3.89813 7.0878 5.07805 6.0139 6.52458C4.94 7.97111 4.24566 9.64206 3.98913 11.3972C3.7326 13.1524 3.92135 14.9407 4.53956 16.612H2.49937ZM0.96875 18.459H30.0312C30.6771 18.459 31 18.7668 31 19.3825C31 19.9981 30.6771 20.306 30.0312 20.306H0.96875C0.322917 20.306 0 19.9981 0 19.3825C0 18.7668 0.322917 18.459 0.96875 18.459ZM8.71875 22.153H22.2812C22.9271 22.153 23.25 22.4608 23.25 23.0765C23.25 23.6922 22.9271 24 22.2812 24H8.71875C8.07292 24 7.75 23.6922 7.75 23.0765C7.75 22.4608 8.07292 22.153 8.71875 22.153Z" fill="#00AAA8"/>
</svg>
