<svg width="40" height="40" viewBox="0 0 51 51" fill="none" xmlns="http://www.w3.org/2000/svg">
<path fill-rule="evenodd" clip-rule="evenodd" d="M30.5638 43.9845C30.5638 44.2913 30.4419 44.5855 30.2249 44.8024C30.008 45.0193 29.7138 45.1412 29.407 45.1413L20.1495 45.1413C19.9976 45.1412 19.8471 45.1113 19.7067 45.0531C19.5664 44.9949 19.4388 44.9096 19.3314 44.8021C19.224 44.6946 19.1388 44.567 19.0807 44.4266C19.0226 44.2862 18.9927 44.1357 18.9927 43.9837C18.9928 43.8318 19.0227 43.6813 19.0809 43.5409C19.1391 43.4006 19.2244 43.273 19.3319 43.1656C19.4394 43.0582 19.567 42.973 19.7074 42.9149C19.8478 42.8568 19.9983 42.8269 20.1503 42.8269L21.3064 42.8276L21.3064 37.0435L16.6784 37.0428C16.3715 37.0429 16.0771 36.9211 15.86 36.7041C15.7525 36.5967 15.6672 36.4691 15.609 36.3288C15.5508 36.1884 15.5209 36.0379 15.5208 35.886C15.5208 35.734 15.5507 35.5835 15.6088 35.4431C15.6669 35.3027 15.7521 35.1751 15.8595 35.0676C15.9669 34.9601 16.0945 34.8748 16.2348 34.8167C16.3752 34.7585 16.5257 34.7285 16.6777 34.7284H18.9927L18.9927 15.0567C18.9928 13.9308 19.3213 12.8294 19.938 11.8874C20.5547 10.9455 21.4327 10.2038 22.4646 9.75342V8.11434C22.4646 7.25874 22.9299 6.51062 23.6207 6.1097L23.6207 2.32951C23.6207 2.1775 23.6507 2.02697 23.7088 1.88653C23.767 1.7461 23.8523 1.61849 23.9598 1.511C24.0673 1.40352 24.1949 1.31825 24.3353 1.26008C24.4757 1.20191 24.6263 1.17197 24.7783 1.17197C24.9303 1.17197 25.0808 1.20191 25.2212 1.26008C25.3617 1.31825 25.4893 1.40352 25.5968 1.511C25.7043 1.61849 25.7895 1.7461 25.8477 1.88653C25.9059 2.02697 25.9358 2.1775 25.9358 2.32951L25.9358 6.1097C26.2878 6.31285 26.5801 6.60518 26.7832 6.95723C26.9862 7.30928 27.093 7.70862 27.0926 8.11505V9.75271C28.1245 10.2033 29.0025 10.9451 29.619 11.8872C30.2356 12.8293 30.5639 13.9308 30.5638 15.0567L30.5638 18.0831L20.9931 18.0838L20.9931 34.7291L28.5641 34.7284L28.5634 31.3775L30.5638 33.3779L30.5638 34.7284L32.8775 34.7284C33.0311 34.7258 33.1837 34.7537 33.3263 34.8107C33.469 34.8676 33.5989 34.9524 33.7085 35.0601C33.8181 35.1678 33.9051 35.2962 33.9645 35.4379C34.0239 35.5795 34.0545 35.7316 34.0545 35.8853C34.0545 36.0389 34.0239 36.191 33.9645 36.3326C33.9051 36.4743 33.8181 36.6027 33.7085 36.7104C33.5989 36.8181 33.469 36.9029 33.3263 36.9598C33.1837 37.0168 33.0311 37.0447 32.8775 37.0421H28.2487L28.2487 42.8262L29.407 42.8276C29.7138 42.8277 30.008 42.9496 30.2249 43.1665C30.4419 43.3834 30.5638 43.6777 30.5638 43.9845ZM23.3068 42.8269V37.0428H26.2483V42.8269H23.3068ZM28.5634 15.0574V15.7702L20.9924 15.7709V15.0581C20.9923 14.321 21.2072 13.5999 21.6109 12.9832C22.0146 12.3665 22.5895 11.881 23.2651 11.5862H26.2915C26.9669 11.8809 27.5416 12.3664 27.9452 12.9829C28.3488 13.5995 28.5636 14.3205 28.5634 15.0574ZM24.7776 9.27188C24.8825 9.27173 24.9875 9.2748 25.0922 9.28107L25.0922 8.11576C25.0923 8.07448 25.0842 8.0336 25.0684 7.99545C25.0527 7.9573 25.0296 7.92262 25.0004 7.8934C24.9713 7.86419 24.9366 7.84099 24.8985 7.82515C24.8604 7.80932 24.8195 7.80114 24.7783 7.8011C24.737 7.80105 24.6961 7.80913 24.658 7.82488C24.6198 7.84064 24.5851 7.86375 24.5559 7.8929C24.5267 7.92206 24.5035 7.95668 24.4877 7.9948C24.4718 8.03291 24.4637 8.07378 24.4636 8.11505V9.28036C24.5682 9.27473 24.6728 9.2719 24.7776 9.27188Z" fill="#00AAA8"/>
<path d="M33.617 27.946C33.4295 27.7585 33.3241 27.5041 33.3241 27.2389C33.3241 26.9737 33.4295 26.7193 33.617 26.5318L35.0312 25.1176L33.617 23.7033C33.4295 23.5158 33.3241 23.2615 33.3241 22.9962C33.3241 22.731 33.4295 22.4767 33.617 22.2891C33.8045 22.1016 34.0589 21.9962 34.3241 21.9962C34.5893 21.9962 34.8437 22.1016 35.0312 22.2891L36.4454 23.7033L37.8596 22.2891C38.0472 22.1016 38.3015 21.9962 38.5668 21.9962C38.832 21.9962 39.0863 22.1016 39.2739 22.2891C39.4614 22.4767 39.5668 22.731 39.5668 22.9962C39.5668 23.2615 39.4614 23.5158 39.2739 23.7033L37.8596 25.1176L39.2739 26.5318C39.4614 26.7193 39.5668 26.9737 39.5668 27.2389C39.5668 27.5041 39.4614 27.7585 39.2739 27.946C39.0863 28.1335 38.832 28.2389 38.5668 28.2389C38.3015 28.2389 38.0472 28.1335 37.8596 27.946L36.4454 26.5318L35.0312 27.946C34.8437 28.1335 34.5893 28.2389 34.3241 28.2389C34.0589 28.2389 33.8045 28.1335 33.617 27.946Z" fill="#00AAA8"/>
<path fill-rule="evenodd" clip-rule="evenodd" d="M45.6584 26.2847C45.9821 23.5292 45.3509 20.746 43.8701 18.3997C41.5242 16.9188 38.7412 16.2873 35.9859 16.6108C33.2136 16.9357 30.6331 18.1901 28.6652 20.1696L26.1217 22.7131C25.6713 23.1635 25.4168 23.7716 25.4132 24.4045C25.4111 24.7171 25.471 25.027 25.5896 25.3163C25.7082 25.6056 25.8831 25.8684 26.1041 26.0895L36.1796 36.1651C36.6251 36.6106 37.2311 36.8588 37.8647 36.8559C38.4999 36.8519 39.1079 36.5976 39.5568 36.1481L42.1009 33.604C44.0792 31.6363 45.3336 29.056 45.6584 26.2847ZM30.0808 21.5824L30.0837 21.5796C31.7325 19.9215 33.894 18.8705 36.2164 18.5977C38.3638 18.3453 40.5356 18.7866 42.4142 19.8571C43.4839 21.7354 43.9247 23.9067 43.6721 26.0535C43.3995 28.3759 42.3485 30.5375 40.6903 32.1862L38.1426 34.7339C38.0626 34.8138 37.9573 34.8555 37.8548 34.8562C37.8068 34.857 37.7591 34.8482 37.7146 34.8303C37.67 34.8125 37.6295 34.786 37.5953 34.7523L27.5176 24.6746C27.4525 24.6096 27.4129 24.5176 27.4136 24.4151C27.4151 24.3068 27.459 24.2035 27.536 24.1273L30.0801 21.5831L30.0808 21.5824Z" fill="#00AAA8"/>
</svg>
