<svg width="45" height="52" viewBox="0 0 45 52" fill="none" xmlns="http://www.w3.org/2000/svg">
<g filter="url(#filter0_d_1960_22388)">
<path d="M33.75 40.7876H28.125V30.9438C28.125 29.3906 29.3842 28.1313 30.9375 28.1313H33.75V40.7876Z" fill="#23AAE6"/>
<path d="M34.4531 43.6001H28.8281C28.4398 43.6001 28.125 43.2853 28.125 42.897V40.7876H33.75C34.5267 40.7876 35.1562 41.4172 35.1562 42.1938V42.897C35.1562 43.2853 34.8414 43.6001 34.4531 43.6001Z" fill="#F0915A"/>
<path d="M22.5 28.1313C18.6167 28.1313 15.4688 31.2793 15.4688 35.1626V37.9751H12.6562V42.1938C12.6562 42.9705 13.2858 43.6001 14.0625 43.6001H18.2812C21.3878 43.6001 23.9062 41.0817 23.9062 37.9751V28.1313H22.5Z" fill="#23AAE6"/>
<path d="M6.32812 43.3657H7.03125C7.80794 43.3657 8.4375 42.7361 8.4375 41.9594V37.272H6.32812C5.93982 37.272 5.625 37.5868 5.625 37.9751V42.6626C5.625 43.051 5.93982 43.3657 6.32812 43.3657Z" fill="#FAB991"/>
<path d="M18.2812 28.1313C14.398 28.1313 11.25 31.2793 11.25 35.1626V37.272H8.4375V42.1938C8.4375 42.9705 9.06706 43.6001 9.84375 43.6001H14.0625C17.1691 43.6001 19.6875 41.0817 19.6875 37.9751H23.9062V40.7876H29.5312V37.3883C32.0142 36.3032 33.75 33.8268 33.75 30.9438V28.1313H18.2812Z" fill="#5AD7FF"/>
<path d="M30.2344 43.6001H24.6094C24.2211 43.6001 23.9062 43.2853 23.9062 42.897V40.7876H29.5312C30.3079 40.7876 30.9375 41.4172 30.9375 42.1938V42.897C30.9375 43.2853 30.6227 43.6001 30.2344 43.6001Z" fill="#FAB991"/>
<path d="M30.9375 30.9438C32.4908 30.9438 33.75 29.6846 33.75 28.1313C33.75 26.578 32.4908 25.3188 30.9375 25.3188C29.3842 25.3188 28.125 26.578 28.125 28.1313C28.125 29.6846 29.3842 30.9438 30.9375 30.9438Z" fill="#FFD205"/>
<path d="M28.125 5.63135C21.9117 5.63135 16.875 10.6682 16.875 16.8813C16.875 23.0945 21.9117 28.1313 28.125 28.1313H32.3438C36.227 28.1313 39.375 24.9834 39.375 21.1001V16.8813C39.375 10.6682 34.3383 5.63135 28.125 5.63135Z" fill="#FAB991"/>
<path d="M25.3125 16.8813V23.9126C23.3709 23.9126 21.7969 22.3386 21.7969 20.397C21.7969 18.4554 23.3709 16.8813 25.3125 16.8813Z" fill="#F0915A"/>
<path d="M30.5859 18.9907C31.1684 18.9907 31.6406 18.5185 31.6406 17.936C31.6406 17.3535 31.1684 16.8813 30.5859 16.8813C30.0034 16.8813 29.5312 17.3535 29.5312 17.936C29.5312 18.5185 30.0034 18.9907 30.5859 18.9907Z" fill="#463C4B"/>
<path d="M36.2109 18.9907C36.7934 18.9907 37.2656 18.5185 37.2656 17.936C37.2656 17.3535 36.7934 16.8813 36.2109 16.8813C35.6284 16.8813 35.1562 17.3535 35.1562 17.936C35.1562 18.5185 35.6284 18.9907 36.2109 18.9907Z" fill="#463C4B"/>
<path d="M34.2187 23.2095C33.701 23.2095 33.2812 22.7897 33.2812 22.2719V19.6938C34.3167 19.6938 35.1562 20.5333 35.1562 21.5688V22.2719C35.1562 22.7897 34.7365 23.2095 34.2187 23.2095Z" fill="#F0915A"/>
<path d="M30.2344 21.8032H28.8281C28.4398 21.8032 28.125 21.4884 28.125 21.1001C28.125 20.7118 28.4398 20.397 28.8281 20.397H30.2344C30.6227 20.397 30.9375 20.7118 30.9375 21.1001C30.9375 21.4884 30.6227 21.8032 30.2344 21.8032Z" fill="#F0915A"/>
<path d="M37.9688 21.1001C37.9688 21.4884 38.2836 21.8032 38.6719 21.8032H39.3399C39.3629 21.572 39.375 21.3376 39.375 21.1003V20.397H38.6719C38.2836 20.397 37.9688 20.7118 37.9688 21.1001Z" fill="#F0915A"/>
<path d="M31.7448 9.73301H30.9375C30.7433 9.73301 30.5859 9.57559 30.5859 9.38144C30.5859 9.18729 30.7433 9.02988 30.9375 9.02988H31.7448C34.2075 9.02988 36.2109 7.02642 36.2109 4.56372C36.2109 3.20678 35.1069 2.10278 33.75 2.10278C32.7807 2.10278 31.9922 2.89134 31.9922 3.8606C31.9922 4.44217 32.4653 4.91528 33.0469 4.91528C33.241 4.91528 33.3984 5.0727 33.3984 5.26685C33.3984 5.461 33.241 5.61841 33.0469 5.61841C32.0776 5.61841 31.2891 4.82985 31.2891 3.8606C31.2891 2.50365 32.3931 1.39966 33.75 1.39966C35.4947 1.39966 36.9141 2.819 36.9141 4.56372C36.9141 7.4141 34.5952 9.73301 31.7448 9.73301Z" fill="#463C4B"/>
</g>
<defs>
<filter id="filter0_d_1960_22388" x="-4" y="0" width="53" height="53" filterUnits="userSpaceOnUse" color-interpolation-filters="sRGB">
<feFlood flood-opacity="0" result="BackgroundImageFix"/>
<feColorMatrix in="SourceAlpha" type="matrix" values="0 0 0 0 0 0 0 0 0 0 0 0 0 0 0 0 0 0 127 0" result="hardAlpha"/>
<feOffset dy="4"/>
<feGaussianBlur stdDeviation="2"/>
<feComposite in2="hardAlpha" operator="out"/>
<feColorMatrix type="matrix" values="0 0 0 0 0 0 0 0 0 0 0 0 0 0 0 0 0 0 0.25 0"/>
<feBlend mode="normal" in2="BackgroundImageFix" result="effect1_dropShadow_1960_22388"/>
<feBlend mode="normal" in="SourceGraphic" in2="effect1_dropShadow_1960_22388" result="shape"/>
</filter>
</defs>
</svg>
