<svg  viewBox="0 0 26 26" fill="none" xmlns="http://www.w3.org/2000/svg">
<g clip-path="url(#clip0_1960_21636)">
<path d="M13 24.7577C13.455 24.7473 13.8915 24.5762 14.2325 24.2749C14.5735 23.9735 14.797 23.5613 14.8633 23.1111H11.0644C11.1327 23.5735 11.3666 23.9955 11.7226 24.2984C12.0786 24.6013 12.5326 24.7645 13 24.7577Z" fill="#0FA958"/>
<path d="M23.4794 20.0995C22.783 19.4786 22.1733 18.7669 21.6667 17.9834C21.1136 16.9019 20.7821 15.7208 20.6917 14.5095V10.9417C20.6887 10.5083 20.6501 10.0759 20.5761 9.64893C20.0077 9.5353 19.4613 9.33043 18.9583 9.04226C19.1501 9.65965 19.2475 10.3025 19.2472 10.9489V14.5167C19.3357 15.9944 19.7422 17.4355 20.4389 18.7417C20.9375 19.5318 21.5292 20.2592 22.2011 20.9084H3.705C4.37696 20.2592 4.9686 19.5318 5.46722 18.7417C6.16389 17.4355 6.57037 15.9944 6.65889 14.5167V10.9417C6.65509 10.1059 6.8162 9.27749 7.13299 8.504C7.44978 7.73052 7.91603 7.02711 8.50505 6.43407C9.09406 5.84103 9.79427 5.37 10.5656 5.04795C11.3369 4.7259 12.1642 4.55915 13 4.55726C14.2233 4.55824 15.4191 4.92 16.4378 5.59726C16.3255 5.18486 16.2624 4.76061 16.25 4.33337V3.87837C15.4959 3.50741 14.6858 3.26339 13.8522 3.15615V2.24615C13.8522 1.99044 13.7506 1.7452 13.5698 1.56438C13.389 1.38356 13.1438 1.28198 12.8881 1.28198C12.6323 1.28198 12.3871 1.38356 12.2063 1.56438C12.0255 1.7452 11.9239 1.99044 11.9239 2.24615V3.19226C10.0575 3.45555 8.3493 4.38519 7.11477 5.80954C5.88024 7.2339 5.20269 9.0568 5.20722 10.9417V14.5095C5.11677 15.7208 4.78528 16.9019 4.23222 17.9834C3.73453 18.7651 3.13459 19.4767 2.44833 20.0995C2.3713 20.1672 2.30955 20.2505 2.26721 20.3439C2.22487 20.4373 2.20291 20.5386 2.20278 20.6411V21.6234C2.20278 21.8149 2.27887 21.9986 2.41431 22.1341C2.54975 22.2695 2.73346 22.3456 2.925 22.3456H23.0028C23.1943 22.3456 23.378 22.2695 23.5135 22.1341C23.6489 21.9986 23.725 21.8149 23.725 21.6234V20.6411C23.7249 20.5386 23.7029 20.4373 23.6606 20.3439C23.6182 20.2505 23.5565 20.1672 23.4794 20.0995V20.0995Z" fill="#0FA958"/>
<path d="M21.6667 7.94439C23.661 7.94439 25.2778 6.32764 25.2778 4.33328C25.2778 2.33892 23.661 0.722168 21.6667 0.722168C19.6723 0.722168 18.0556 2.33892 18.0556 4.33328C18.0556 6.32764 19.6723 7.94439 21.6667 7.94439Z" fill="#0FA958"/>
</g>
<defs>
<clipPath id="clip0_1960_21636">
<rect width="26" height="26" fill="white"/>
</clipPath>
</defs>
</svg>
