<svg  viewBox="0 0 42 28" fill="none" xmlns="http://www.w3.org/2000/svg">
<path d="M21.1014 24.8869C21.1014 26.0772 19.9746 27.0415 18.5834 27.0415H2.5207C1.12883 27.0415 0 26.0772 0 24.8869V5.47874C0 4.28845 1.12883 3.32617 2.5207 3.32617H18.5834C19.9746 3.32617 21.1014 4.28911 21.1014 5.47874V24.8869Z" fill="#BB324A"/>
<path d="M21.1014 23.3697C21.1014 24.5606 19.9746 25.5249 18.5834 25.5249H2.5207C1.12883 25.5249 0 24.5606 0 23.3697V3.9628C0 2.77383 1.12883 1.80957 2.5207 1.80957H18.5834C19.9746 1.80957 21.1014 2.77383 21.1014 3.9628V23.3697Z" fill="#DE374B"/>
<path d="M20.8992 24.8869C20.8992 26.0772 22.0274 27.0415 23.4186 27.0415H39.4826C40.8712 27.0415 42 26.0772 42 24.8869V5.47874C42 4.28845 40.8712 3.32617 39.4826 3.32617H23.4199C22.0287 3.32617 20.8999 4.28911 20.8999 5.47874V24.8869" fill="#BB324A"/>
<path d="M20.8992 23.3697C20.8992 24.5606 22.0274 25.5249 23.4186 25.5249H39.4826C40.8712 25.5249 42 24.5606 42 23.3697V3.9628C42 2.77383 40.8712 1.80957 39.4826 1.80957H23.4199C22.0287 1.80957 20.8999 2.77383 20.8999 3.9628V23.3697" fill="#DE374B"/>
<path d="M21.3209 23.08C21.3209 24.2703 20.2582 25.2345 18.9456 25.2345H3.81481C2.5049 25.2345 1.44348 24.2703 1.44348 23.08V3.67245C1.44348 2.48083 2.5049 1.51855 3.81481 1.51855H18.9463C20.2588 1.51855 21.3216 2.48149 21.3216 3.67245V23.08" fill="#D0D1D2"/>
<path d="M21.3209 21.5614C21.3209 22.753 20.2582 23.716 18.9456 23.716H3.81481C2.5049 23.716 1.44348 22.753 1.44348 21.5614V2.15323C1.44348 0.964263 2.5049 0 3.81481 0H18.9463C20.2588 0 21.3216 0.964263 21.3216 2.15323V21.5614" fill="#E7E6E6"/>
<path d="M4.43218 5.21675H17.8942C18.799 5.21675 18.799 3.94385 17.8942 3.94385H4.43218C3.52806 3.94385 3.52806 5.21675 4.43218 5.21675ZM4.43218 7.79892H17.8942C18.799 7.79892 18.799 6.52733 17.8942 6.52733H4.43218C3.52806 6.52733 3.52806 7.79892 4.43218 7.79892ZM4.43218 10.4406H17.8942C18.799 10.4406 18.799 9.16765 17.8942 9.16765H4.43218C3.52806 9.16765 3.52806 10.4406 4.43218 10.4406ZM4.43218 13.0247H17.8942C18.799 13.0247 18.799 11.7518 17.8942 11.7518H4.43218C3.52806 11.7518 3.52806 13.0247 4.43218 13.0247ZM4.43218 15.6974H17.8942C18.799 15.6974 18.799 14.4245 17.8942 14.4245H4.43218C3.52806 14.4245 3.52806 15.6974 4.43218 15.6974ZM4.43218 18.7171H17.8942C18.799 18.7171 18.799 17.4442 17.8942 17.4442H4.43218C3.52806 17.4442 3.52806 18.7171 4.43218 18.7171Z" fill="#35494D"/>
<path d="M41.1942 23.4887C41.1942 24.679 40.1321 25.6426 38.8202 25.6426H23.6894C22.3815 25.6426 21.3174 24.679 21.3174 23.4887V4.07982C21.3174 2.89085 22.3815 1.92725 23.6894 1.92725H38.8202C40.1315 1.92725 41.1942 2.89085 41.1942 4.07982V23.4887Z" fill="#D0D1D2"/>
<path d="M41.1942 21.9683C41.1942 23.1573 40.1321 24.1216 38.8202 24.1216H23.6894C22.3815 24.1216 21.3174 23.1573 21.3174 21.9683V2.5575C21.3174 1.36919 22.3815 0.40625 23.6894 0.40625H38.8202C40.1315 0.40625 41.1942 1.36919 41.1942 2.5575V21.9683Z" fill="#E7E6E6"/>
<path d="M24.3076 5.62349H37.7696C38.6744 5.62349 38.6744 4.35059 37.7696 4.35059H24.3076C23.4028 4.35059 23.4028 5.62349 24.3076 5.62349ZM24.3076 8.2083H37.7696C38.6744 8.2083 38.6744 6.93671 37.7696 6.93671H24.3076C23.4028 6.93671 23.4028 8.2083 24.3076 8.2083ZM24.3076 10.8493H37.7696C38.6744 10.8493 38.6744 9.57637 37.7696 9.57637H24.3076C23.4028 9.57637 23.4028 10.8493 24.3076 10.8493ZM24.3076 13.4361H37.7696C38.6744 13.4361 38.6744 12.1618 37.7696 12.1618H24.3076C23.4028 12.1618 23.4028 13.4361 24.3076 13.4361ZM24.3076 16.1061H37.7696C38.6744 16.1061 38.6744 14.8326 37.7696 14.8326H24.3076C23.4028 14.8326 23.4028 16.1061 24.3076 16.1061ZM29.1527 19.1238H38.0042C38.5991 19.1238 38.5991 17.8503 38.0042 17.8503H29.1527C28.5586 17.8503 28.5586 19.1238 29.1527 19.1238Z" fill="#35494D"/>
</svg>
