<svg  viewBox="0 0 24 23" fill="none" xmlns="http://www.w3.org/2000/svg">
<path d="M5.2 22.5598H3.84L4.656 21.4718C5.2 20.7238 5.54 19.7718 5.744 18.6158C2.344 17.0518 0.440002 14.1278 0.440002 10.3198C0.440002 4.4718 4.86 0.799805 12 0.799805C19.14 0.799805 23.56 4.4718 23.56 10.3198C23.56 16.3038 19.208 19.8398 12 19.8398H11.524C10.436 21.1318 8.532 22.5598 5.2 22.5598ZM12 2.1598C5.608 2.1598 1.8 5.2198 1.8 10.3198C1.8 14.6718 4.452 16.7118 6.696 17.5958L7.172 17.7998L7.104 18.3438C6.968 19.4318 6.764 20.3838 6.356 21.1998C8.6 20.9278 9.892 19.7718 10.64 18.8198L10.844 18.5478H12C21.18 18.5478 22.2 12.8358 22.2 10.3878C22.2 5.21981 18.392 2.1598 12 2.1598Z" fill="black"/>
</svg>
