<svg width="27" height="27" viewBox="0 0 27 27" fill="none" xmlns="http://www.w3.org/2000/svg">
<path d="M14.6312 13.7731L4.20328 15.5103C4.0834 15.5303 3.97089 15.5815 3.87708 15.6588C3.78327 15.7361 3.71146 15.8367 3.66888 15.9505L0.0733905 25.5821C-0.26996 26.468 0.656255 27.3124 1.50632 26.8861L26.4269 14.4278C26.5991 14.3415 26.744 14.209 26.8452 14.0451C26.9464 13.8812 27 13.6923 27 13.4997C27 13.3071 26.9464 13.1182 26.8452 12.9543C26.744 12.7904 26.5991 12.6579 26.4269 12.5716L1.50632 0.113312C0.656255 -0.311652 -0.26996 0.532739 0.0733905 1.41727L3.67026 11.0489C3.71284 11.1627 3.78465 11.2633 3.87846 11.3406C3.97227 11.4178 4.08478 11.4691 4.20467 11.4891L14.6325 13.2263C14.6976 13.2367 14.7568 13.2699 14.7996 13.32C14.8423 13.3701 14.8658 13.4338 14.8658 13.4997C14.8658 13.5656 14.8423 13.6293 14.7996 13.6794C14.7568 13.7295 14.6976 13.7627 14.6325 13.7731H14.6312Z" fill="#29C2E3"/>
</svg>
