<svg viewBox="0 0 18 23" fill="none" xmlns="http://www.w3.org/2000/svg">
<path d="M2.5 2.25V19.995L7.47738 16.0121C7.90956 15.6664 8.44654 15.478 9 15.478C9.55346 15.478 10.0904 15.6664 10.5226 16.0121L15.5 19.9934V2.25H2.5ZM1.6875 0.625H16.3125C16.528 0.625 16.7347 0.710602 16.887 0.862976C17.0394 1.01535 17.125 1.22201 17.125 1.4375V21.685C17.1248 21.8379 17.0814 21.9876 16.9999 22.117C16.9184 22.2463 16.8021 22.3501 16.6643 22.4162C16.5265 22.4824 16.3728 22.5084 16.2208 22.4912C16.0689 22.4739 15.925 22.4142 15.8055 22.3188L9.507 17.2812C9.36302 17.1663 9.18425 17.1037 9 17.1037C8.81575 17.1037 8.63698 17.1663 8.493 17.2812L2.1945 22.3188C2.07503 22.4142 1.93107 22.4739 1.77915 22.4912C1.62724 22.5084 1.47355 22.4824 1.33573 22.4162C1.19791 22.3501 1.08157 22.2463 1.00007 22.117C0.918568 21.9876 0.875218 21.8379 0.875 21.685V1.4375C0.875 1.22201 0.960603 1.01535 1.11298 0.862976C1.26535 0.710602 1.47201 0.625 1.6875 0.625Z" fill="#FF0000"/>
</svg>
