<svg  viewBox="0 0 27 27" fill="none" xmlns="http://www.w3.org/2000/svg">
<path d="M13.5 6.75C12.6656 6.75 11.85 6.99743 11.1562 7.46099C10.4624 7.92455 9.92169 8.58343 9.60238 9.3543C9.28308 10.1252 9.19953 10.9734 9.36231 11.7918C9.52509 12.6101 9.92689 13.3619 10.5169 13.9519C11.1069 14.5419 11.8586 14.9437 12.677 15.1064C13.4953 15.2692 14.3436 15.1857 15.1144 14.8664C15.8853 14.5471 16.5442 14.0063 17.0078 13.3126C17.4713 12.6188 17.7188 11.8031 17.7188 10.9688C17.7188 9.84987 17.2743 8.77681 16.4831 7.98564C15.6919 7.19447 14.6189 6.75 13.5 6.75ZM13.5 13.5C12.9994 13.5 12.51 13.3515 12.0937 13.0734C11.6775 12.7953 11.353 12.3999 11.1614 11.9374C10.9698 11.4749 10.9197 10.9659 11.0174 10.4749C11.1151 9.98391 11.3561 9.53289 11.7101 9.17889C12.0641 8.82488 12.5152 8.58381 13.0062 8.48614C13.4972 8.38847 14.0061 8.4386 14.4687 8.63018C14.9312 8.82176 15.3265 9.1462 15.6047 9.56246C15.8828 9.97872 16.0312 10.4681 16.0312 10.9688C16.0306 11.6399 15.7637 12.2833 15.2891 12.7579C14.8146 13.2324 14.1711 13.4993 13.5 13.5Z" fill="#0FA958"/>
<path d="M13.5 1.6875C11.1637 1.6875 8.87988 2.38029 6.93733 3.67827C4.99477 4.97624 3.48073 6.8211 2.58667 8.97955C1.69261 11.138 1.45869 13.5131 1.91447 15.8045C2.37026 18.0959 3.49529 20.2007 5.1473 21.8527C6.79931 23.5047 8.9041 24.6297 11.1955 25.0855C13.4869 25.5413 15.862 25.3074 18.0204 24.4133C20.1789 23.5193 22.0238 22.0052 23.3217 20.0627C24.6197 18.1201 25.3125 15.8363 25.3125 13.5C25.3089 10.3682 24.0633 7.36575 21.8488 5.15125C19.6343 2.93675 16.6318 1.69107 13.5 1.6875ZM8.4375 22.2556V21.0938C8.43817 20.4226 8.70507 19.7792 9.17963 19.3046C9.65418 18.8301 10.2976 18.5632 10.9688 18.5625H16.0313C16.7024 18.5632 17.3458 18.8301 17.8204 19.3046C18.2949 19.7792 18.5618 20.4226 18.5625 21.0938V22.2556C17.0262 23.1527 15.2791 23.6254 13.5 23.6254C11.7209 23.6254 9.97383 23.1527 8.4375 22.2556ZM20.2433 21.0313C20.2264 19.9246 19.7755 18.8688 18.9877 18.0913C18.1998 17.3139 17.1381 16.8771 16.0313 16.875H10.9688C9.8619 16.8771 8.80018 17.3139 8.01233 18.0913C7.22447 18.8688 6.77357 19.9246 6.75675 21.0313C5.22666 19.6651 4.14765 17.8663 3.66258 15.8732C3.17751 13.8801 3.30927 11.7866 4.04041 9.87007C4.77156 7.9535 6.06759 6.30422 7.75691 5.1406C9.44622 3.97699 11.4491 3.35393 13.5004 3.35393C15.5517 3.35393 17.5546 3.97699 19.2439 5.1406C20.9333 6.30422 22.2293 7.9535 22.9604 9.87007C23.6916 11.7866 23.8233 13.8801 23.3383 15.8732C22.8532 17.8663 21.7742 19.6651 20.2441 21.0313H20.2433Z" fill="#0FA958"/>
</svg>
