<svg  viewBox="0 0 23 25" fill="none" xmlns="http://www.w3.org/2000/svg">
<path d="M18.75 17C17.8594 17 17.0375 17.3125 16.3937 17.8344L9.91875 13.15C10.0272 12.5549 10.0272 11.9451 9.91875 11.35L16.3937 6.66562C17.0375 7.1875 17.8594 7.5 18.75 7.5C20.8188 7.5 22.5 5.81875 22.5 3.75C22.5 1.68125 20.8188 0 18.75 0C16.6812 0 15 1.68125 15 3.75C15 4.1125 15.05 4.45937 15.1469 4.79062L8.99687 9.24375C8.08437 8.03437 6.63438 7.25 5 7.25C2.2375 7.25 0 9.4875 0 12.25C0 15.0125 2.2375 17.25 5 17.25C6.63438 17.25 8.08437 16.4656 8.99687 15.2563L15.1469 19.7094C15.05 20.0406 15 20.3906 15 20.75C15 22.8188 16.6812 24.5 18.75 24.5C20.8188 24.5 22.5 22.8188 22.5 20.75C22.5 18.6812 20.8188 17 18.75 17ZM18.75 2.125C19.6469 2.125 20.375 2.85313 20.375 3.75C20.375 4.64687 19.6469 5.375 18.75 5.375C17.8531 5.375 17.125 4.64687 17.125 3.75C17.125 2.85313 17.8531 2.125 18.75 2.125ZM5 15C3.48438 15 2.25 13.7656 2.25 12.25C2.25 10.7344 3.48438 9.5 5 9.5C6.51562 9.5 7.75 10.7344 7.75 12.25C7.75 13.7656 6.51562 15 5 15ZM18.75 22.375C17.8531 22.375 17.125 21.6469 17.125 20.75C17.125 19.8531 17.8531 19.125 18.75 19.125C19.6469 19.125 20.375 19.8531 20.375 20.75C20.375 21.6469 19.6469 22.375 18.75 22.375Z" fill="#25B7D3"/>
</svg>
