<svg width="26" height="26" viewBox="0 0 26 26" fill="none" xmlns="http://www.w3.org/2000/svg">
<path d="M14.625 1.625C14.625 1.19402 14.4538 0.780698 14.149 0.475951C13.8443 0.171205 13.431 0 13 0C12.569 0 12.1557 0.171205 11.851 0.475951C11.5462 0.780698 11.375 1.19402 11.375 1.625V3.25C11.375 3.68098 11.5462 4.0943 11.851 4.39905C12.1557 4.70379 12.569 4.875 13 4.875C13.431 4.875 13.8443 4.70379 14.149 4.39905C14.4538 4.0943 14.625 3.68098 14.625 3.25V1.625ZM22.1926 6.10512C22.4886 5.79865 22.6524 5.38817 22.6487 4.9621C22.645 4.53603 22.4741 4.12846 22.1728 3.82717C21.8715 3.52588 21.464 3.35498 21.0379 3.35128C20.6118 3.34758 20.2014 3.51137 19.8949 3.80737L18.746 4.95625C18.45 5.26273 18.2862 5.67321 18.2899 6.09928C18.2936 6.52535 18.4645 6.93292 18.7658 7.23421C19.0671 7.53549 19.4747 7.70639 19.9007 7.7101C20.3268 7.7138 20.7373 7.55001 21.0437 7.254L22.1926 6.10512ZM26 13C26 13.431 25.8288 13.8443 25.524 14.149C25.2193 14.4538 24.806 14.625 24.375 14.625H22.75C22.319 14.625 21.9057 14.4538 21.601 14.149C21.2962 13.8443 21.125 13.431 21.125 13C21.125 12.569 21.2962 12.1557 21.601 11.851C21.9057 11.5462 22.319 11.375 22.75 11.375H24.375C24.806 11.375 25.2193 11.5462 25.524 11.851C25.8288 12.1557 26 12.569 26 13ZM4.95625 7.254C5.10615 7.4092 5.28546 7.533 5.48372 7.61816C5.68197 7.70333 5.89521 7.74816 6.11097 7.75003C6.32674 7.75191 6.54072 7.71079 6.74043 7.62909C6.94013 7.54738 7.12157 7.42672 7.27414 7.27414C7.42672 7.12157 7.54738 6.94013 7.62909 6.74043C7.71079 6.54072 7.75191 6.32674 7.75003 6.11097C7.74816 5.89521 7.70333 5.68197 7.61816 5.48372C7.533 5.28546 7.4092 5.10615 7.254 4.95625L6.10512 3.80737C5.79865 3.51137 5.38817 3.34758 4.9621 3.35128C4.53603 3.35498 4.12846 3.52588 3.82717 3.82717C3.52588 4.12846 3.35498 4.53603 3.35128 4.9621C3.34758 5.38817 3.51137 5.79865 3.80737 6.10512L4.95625 7.254ZM4.875 13C4.875 13.431 4.70379 13.8443 4.39905 14.149C4.0943 14.4538 3.68098 14.625 3.25 14.625H1.625C1.19402 14.625 0.780698 14.4538 0.475951 14.149C0.171205 13.8443 0 13.431 0 13C0 12.569 0.171205 12.1557 0.475951 11.851C0.780698 11.5462 1.19402 11.375 1.625 11.375H3.25C3.68098 11.375 4.0943 11.5462 4.39905 11.851C4.70379 12.1557 4.875 12.569 4.875 13ZM9.75 22.75V21.125H16.25V22.75C16.25 23.612 15.9076 24.4386 15.2981 25.0481C14.6886 25.6576 13.862 26 13 26C12.138 26 11.3114 25.6576 10.7019 25.0481C10.0924 24.4386 9.75 23.612 9.75 22.75ZM16.25 19.5C16.2744 18.9475 16.588 18.4502 17.0251 18.1041C18.0857 17.2677 18.8594 16.1216 19.2386 14.8251C19.6178 13.5287 19.5837 12.1463 19.141 10.8702C18.6984 9.594 17.8691 8.48745 16.7685 7.70431C15.668 6.92118 14.3508 6.50036 13 6.50036C11.6492 6.50036 10.332 6.92118 9.23147 7.70431C8.1309 8.48745 7.30165 9.594 6.85897 10.8702C6.4163 12.1463 6.38219 13.5287 6.76139 14.8251C7.14059 16.1216 7.91427 17.2677 8.97487 18.1041C9.41362 18.4502 9.72563 18.9475 9.74837 19.5H16.2516H16.25Z" fill="black"/>
</svg>
