<svg width="22" height="22" viewBox="0 0 22 22" fill="none" xmlns="http://www.w3.org/2000/svg">
<path d="M0 15.7143C0 15.2975 0.165561 14.8978 0.460261 14.6031C0.754961 14.3084 1.15466 14.1429 1.57143 14.1429H4.71429C5.13105 14.1429 5.53075 14.3084 5.82545 14.6031C6.12015 14.8978 6.28571 15.2975 6.28571 15.7143V20.4286C6.28571 20.8453 6.12015 21.245 5.82545 21.5397C5.53075 21.8344 5.13105 22 4.71429 22H1.57143C1.15466 22 0.754961 21.8344 0.460261 21.5397C0.165561 21.245 0 20.8453 0 20.4286V15.7143ZM7.85714 9.42857C7.85714 9.0118 8.0227 8.6121 8.3174 8.3174C8.6121 8.0227 9.0118 7.85714 9.42857 7.85714H12.5714C12.9882 7.85714 13.3879 8.0227 13.6826 8.3174C13.9773 8.6121 14.1429 9.0118 14.1429 9.42857V20.4286C14.1429 20.8453 13.9773 21.245 13.6826 21.5397C13.3879 21.8344 12.9882 22 12.5714 22H9.42857C9.0118 22 8.6121 21.8344 8.3174 21.5397C8.0227 21.245 7.85714 20.8453 7.85714 20.4286V9.42857ZM15.7143 1.57143C15.7143 1.15466 15.8798 0.754961 16.1745 0.460261C16.4692 0.165561 16.8689 0 17.2857 0H20.4286C20.8453 0 21.245 0.165561 21.5397 0.460261C21.8344 0.754961 22 1.15466 22 1.57143V20.4286C22 20.8453 21.8344 21.245 21.5397 21.5397C21.245 21.8344 20.8453 22 20.4286 22H17.2857C16.8689 22 16.4692 21.8344 16.1745 21.5397C15.8798 21.245 15.7143 20.8453 15.7143 20.4286V1.57143Z" fill="#25B7D3"/>
</svg>
